<svg xmlns="http://www.w3.org/2000/svg" width="43" height="38" viewBox="0 0 43 38" fill="none">
  <path d="M21.1538 2C24.4864 2 27.6824 3.29075 30.0389 5.58831C32.3953 7.88586 33.7192 11.002 33.7192 14.2512C33.7192 27.8733 38.8156 30.5577 40.1923 30.5577H2.11536C3.52127 30.5577 8.58843 27.8447 8.58843 14.2512C8.58843 11.002 9.91228 7.88586 12.2687 5.58831C14.6252 3.29075 17.8213 2 21.1538 2Z" stroke="#A7A9AE" stroke-width="4" stroke-linecap="round" stroke-linejoin="round"/>
  <mask id="path-2-inside-1_5430_6856" fill="white">
    <path d="M15.4424 34.1914C15.7715 35.2818 16.5108 36.2471 17.5444 36.9362C18.578 37.6253 19.8475 37.9991 21.1539 37.9991C22.4603 37.9991 23.7298 37.6253 24.7634 36.9362C25.797 36.2471 26.5363 35.2818 26.8654 34.1914"/>
  </mask>
  <path d="M15.4424 32.1914C14.3378 32.1914 13.4424 33.0868 13.4424 34.1914C13.4424 35.296 14.3378 36.1914 15.4424 36.1914V32.1914ZM26.8654 36.1914C27.97 36.1914 28.8654 35.296 28.8654 34.1914C28.8654 33.0868 27.97 32.1914 26.8654 32.1914V36.1914ZM26.8654 32.1914H15.4424V36.1914H26.8654V32.1914ZM19.2717 33.0355C18.6333 30.9206 16.4013 29.7237 14.2864 30.3621C12.1715 31.0005 10.9746 33.2325 11.613 35.3473L19.2717 33.0355ZM30.6948 35.3473C31.3332 33.2325 30.1362 31.0005 28.0214 30.3621C25.9065 29.7237 23.6745 30.9206 23.0361 33.0355L30.6948 35.3473ZM11.613 35.3473C12.2355 37.4095 13.5943 39.1102 15.3256 40.2644L19.7632 33.608C19.4273 33.3841 19.3075 33.1541 19.2717 33.0355L11.613 35.3473ZM15.3256 40.2644C17.0512 41.4148 19.1008 41.9991 21.1539 41.9991V33.9991C20.5942 33.9991 20.1048 33.8358 19.7632 33.608L15.3256 40.2644ZM21.1539 41.9991C23.207 41.9991 25.2566 41.4148 26.9822 40.2644L22.5446 33.608C22.2029 33.8358 21.7136 33.9991 21.1539 33.9991V41.9991ZM26.9822 40.2644C28.7135 39.1102 30.0723 37.4095 30.6948 35.3473L23.0361 33.0355C23.0003 33.1541 22.8805 33.3841 22.5446 33.608L26.9822 40.2644Z" fill="#A7A9AE" mask="url(#path-2-inside-1_5430_6856)"/>
</svg>