<svg xmlns="http://www.w3.org/2000/svg" width="21" height="19" viewBox="0 0 21 19" fill="none">
  <path d="M10.5768 1C12.2431 1 13.8411 1.64538 15.0194 2.79415C16.1976 3.94293 16.8595 5.50101 16.8595 7.12562C16.8595 13.9366 19.4078 15.2788 20.0961 15.2788H1.05762C1.76058 15.2788 4.29415 13.9224 4.29415 7.12562C4.29415 5.50101 4.95608 3.94293 6.13431 2.79415C7.31255 1.64538 8.91057 1 10.5768 1Z" stroke="white" stroke-width="1.5" stroke-linecap="round" stroke-linejoin="round"/>
  <mask id="path-2-inside-1_5312_1083" fill="white">
    <path d="M7.72119 17.0957C7.88576 17.6409 8.25541 18.1236 8.77222 18.4681C9.28902 18.8126 9.92376 18.9995 10.577 18.9995C11.2302 18.9995 11.8649 18.8126 12.3817 18.4681C12.8985 18.1236 13.2682 17.6409 13.4327 17.0957"/>
  </mask>
  <path d="M7.72119 16.3457C7.30698 16.3457 6.97119 16.6815 6.97119 17.0957C6.97119 17.5099 7.30698 17.8457 7.72119 17.8457V16.3457ZM13.4327 17.8457C13.8469 17.8457 14.1827 17.5099 14.1827 17.0957C14.1827 16.6815 13.8469 16.3457 13.4327 16.3457V17.8457ZM13.4327 16.3457H7.72119V17.8457H13.4327V16.3457ZM9.15719 16.6622C8.91779 15.8691 8.0808 15.4203 7.28772 15.6597C6.49463 15.8991 6.04579 16.7361 6.28519 17.5292L9.15719 16.6622ZM14.8687 17.5292C15.1081 16.7361 14.6593 15.8991 13.8662 15.6597C13.0731 15.4203 12.2361 15.8691 11.9967 16.6622L14.8687 17.5292ZM6.28519 17.5292C6.55976 18.4388 7.16172 19.1972 7.94017 19.7162L9.60427 17.22C9.3491 17.0499 9.21176 16.843 9.15719 16.6622L6.28519 17.5292ZM7.94017 19.7162C8.71645 20.2337 9.64375 20.4995 10.577 20.4995V17.4995C10.2038 17.4995 9.86158 17.3916 9.60427 17.22L7.94017 19.7162ZM10.577 20.4995C11.5102 20.4995 12.4375 20.2337 13.2138 19.7162L11.5497 17.22C11.2923 17.3916 10.9502 17.4995 10.577 17.4995V20.4995ZM13.2138 19.7162C13.9922 19.1972 14.5942 18.4388 14.8687 17.5292L11.9967 16.6622C11.9422 16.843 11.8048 17.0499 11.5497 17.22L13.2138 19.7162Z" fill="white" mask="url(#path-2-inside-1_5312_1083)"/>
</svg>