<svg xmlns="http://www.w3.org/2000/svg" width="21" height="19" viewBox="0 0 21 19" fill="none">
<path d="M10.5768 1C12.2431 1 13.8411 1.64538 15.0194 2.79415C16.1976 3.94293 16.8595 5.50101 16.8595 7.12562C16.8595 13.9366 19.4078 15.2788 20.0961 15.2788H1.05762C1.76058 15.2788 4.29415 13.9224 4.29415 7.12562C4.29415 5.50101 4.95608 3.94293 6.13431 2.79415C7.31255 1.64538 8.91057 1 10.5768 1Z" stroke="#5F6165" stroke-width="1.5" stroke-linecap="round" stroke-linejoin="round"/>
<mask id="path-2-inside-1_744_638" fill="white">
<path d="M7.72119 17.0962C7.88576 17.6414 8.25541 18.1241 8.77222 18.4686C9.28902 18.8131 9.92376 19 10.577 19C11.2302 19 11.8649 18.8131 12.3817 18.4686C12.8985 18.1241 13.2682 17.6414 13.4327 17.0962"/>
</mask>
<path d="M7.72119 16.3462C7.30698 16.3462 6.97119 16.682 6.97119 17.0962C6.97119 17.5104 7.30698 17.8462 7.72119 17.8462V16.3462ZM13.4327 17.8462C13.8469 17.8462 14.1827 17.5104 14.1827 17.0962C14.1827 16.682 13.8469 16.3462 13.4327 16.3462V17.8462ZM13.4327 16.3462H7.72119V17.8462H13.4327V16.3462ZM9.15719 16.6627C8.91779 15.8696 8.0808 15.4208 7.28772 15.6602C6.49463 15.8996 6.04579 16.7366 6.28519 17.5297L9.15719 16.6627ZM14.8687 17.5297C15.1081 16.7366 14.6593 15.8996 13.8662 15.6602C13.0731 15.4208 12.2361 15.8696 11.9967 16.6627L14.8687 17.5297ZM6.28519 17.5297C6.55976 18.4393 7.16172 19.1977 7.94017 19.7167L9.60427 17.2205C9.3491 17.0504 9.21176 16.8435 9.15719 16.6627L6.28519 17.5297ZM7.94017 19.7167C8.71645 20.2342 9.64375 20.5 10.577 20.5V17.5C10.2038 17.5 9.86158 17.3921 9.60427 17.2205L7.94017 19.7167ZM10.577 20.5C11.5102 20.5 12.4375 20.2342 13.2138 19.7167L11.5497 17.2205C11.2923 17.3921 10.9502 17.5 10.577 17.5V20.5ZM13.2138 19.7167C13.9922 19.1977 14.5942 18.4393 14.8687 17.5297L11.9967 16.6627C11.9422 16.8435 11.8048 17.0504 11.5497 17.2205L13.2138 19.7167Z" fill="#5F6165" mask="url(#path-2-inside-1_744_638)"/>
</svg>