<svg width="current" height="current" viewBox="0 0 23 22" fill="none" xmlns="http://www.w3.org/2000/svg">
<g id="Group 1000003824">
<path id="Vector" d="M2.53846 21L19.4615 21C20.3112 21 21 20.3284 21 19.5L21 3C21 2.17157 20.3112 1.5 19.4615 1.5L2.53846 1.5C1.68879 1.5 1 2.17157 1 3L1 19.5C1 20.3284 1.68879 21 2.53846 21Z" fill="#1990FF" stroke="#1990FF" stroke-width="1.5" stroke-linecap="round" stroke-linejoin="round"/>
<path id="Vector_2" d="M1 17.1523H21" stroke="white" stroke-width="1.5" stroke-linecap="square" stroke-linejoin="round"/>
<path id="Vector_3" d="M5.62596 16.6072C5.32365 16.8904 5.30813 17.365 5.59129 17.6673C5.87445 17.9696 6.34907 17.9852 6.65138 17.702L5.62596 16.6072ZM14.1541 9.64692L13.6741 9.07064C13.6629 9.07996 13.652 9.08959 13.6413 9.09954L14.1541 9.64692ZM15.1387 9.64692L14.6587 10.2232C14.6747 10.2365 14.6912 10.2492 14.7083 10.2612L15.1387 9.64692ZM21.298 14.8783L21.9122 15.3086L22.773 14.0802L22.1587 13.6498L21.298 14.8783ZM6.65138 17.702L14.6668 10.1943L13.6413 9.09954L5.62596 16.6072L6.65138 17.702ZM14.6341 10.2232C14.6375 10.2203 14.6419 10.2188 14.6464 10.2188V8.71875C14.2911 8.71875 13.947 8.84326 13.6741 9.07064L14.6341 10.2232ZM14.6464 10.2188C14.6509 10.2188 14.6552 10.2203 14.6587 10.2232L15.6187 9.07064C15.3457 8.84326 15.0016 8.71875 14.6464 8.71875V10.2188ZM14.7083 10.2612L21.298 14.8783L22.1587 13.6498L15.569 9.03269L14.7083 10.2612Z" fill="white"/>
<path id="Vector_4" d="M7.1534 9.46304C8.4279 9.46304 9.46109 8.42985 9.46109 7.15535C9.46109 5.88085 8.4279 4.84766 7.1534 4.84766C5.87889 4.84766 4.8457 5.88085 4.8457 7.15535C4.8457 8.42985 5.87889 9.46304 7.1534 9.46304Z" fill="#1990FF" stroke="white" stroke-width="1.5" stroke-linecap="round" stroke-linejoin="round"/>
</g>
</svg>
