<svg xmlns="http://www.w3.org/2000/svg" width="44" height="44" viewBox="0 0 44 44" fill="none">
<path d="M0 22C0 9.84974 9.84974 0 22 0C34.1503 0 44 9.84974 44 22C44 34.1503 34.1503 44 22 44C9.84974 44 0 34.1503 0 22Z" fill="black"/>
<path d="M26.0468 15.2826C26.2561 15.2826 26.613 15.3159 27.1174 15.3825C27.6217 15.4491 28.1737 15.6394 28.7732 15.9535C29.3822 16.258 29.9342 16.7671 30.429 17.4808C30.4005 17.5094 30.2625 17.6141 30.0151 17.7949C29.7676 17.9662 29.4917 18.2231 29.1872 18.5657C28.8826 18.8988 28.6162 19.327 28.3878 19.8504C28.1594 20.3643 28.0452 20.9781 28.0452 21.6918C28.0452 22.5102 28.1879 23.2049 28.4734 23.7758C28.7684 24.3468 29.1063 24.8084 29.4869 25.1605C29.8771 25.503 30.2197 25.7552 30.5147 25.917C30.8192 26.0788 30.981 26.1644 31 26.1739C30.9905 26.212 30.8668 26.5498 30.6289 27.1874C30.4005 27.825 30.0198 28.534 29.4869 29.3143C29.0206 29.99 28.5163 30.6133 27.9738 31.1842C27.4409 31.7552 26.7986 32.0407 26.0468 32.0407C25.5424 32.0407 25.1285 31.9693 24.8049 31.8266C24.4814 31.6743 24.1483 31.5268 23.8057 31.3841C23.4631 31.2318 23.0016 31.1557 22.4211 31.1557C21.8596 31.1557 21.3886 31.2318 21.0079 31.3841C20.6368 31.5363 20.2799 31.6886 19.9374 31.8409C19.6043 31.9931 19.2094 32.0693 18.7526 32.0693C18.0579 32.0693 17.4489 31.7933 16.9255 31.2413C16.4021 30.6894 15.8644 30.028 15.3125 29.2572C14.6749 28.3436 14.1277 27.2302 13.6709 25.917C13.2236 24.5942 13 23.262 13 21.9202C13 20.4832 13.2712 19.2794 13.8136 18.3088C14.3561 17.3286 15.0508 16.5911 15.8977 16.0962C16.7542 15.5919 17.6392 15.3397 18.5527 15.3397C19.0381 15.3397 19.4948 15.4206 19.9231 15.5823C20.3513 15.7346 20.751 15.8916 21.1221 16.0534C21.5028 16.2152 21.8454 16.2961 22.1499 16.2961C22.4449 16.2961 22.7875 16.2104 23.1776 16.0391C23.5678 15.8678 24.0056 15.7013 24.4909 15.5395C24.9762 15.3682 25.4948 15.2826 26.0468 15.2826ZM25.2617 13.4697C24.8906 13.917 24.4243 14.2929 23.8628 14.5974C23.3013 14.8924 22.7684 15.0399 22.2641 15.0399C22.1594 15.0399 22.0595 15.0304 21.9643 15.0114C21.9548 14.9828 21.9453 14.9305 21.9358 14.8544C21.9262 14.7782 21.9215 14.6973 21.9215 14.6117C21.9215 14.0407 22.0452 13.4888 22.2926 12.9559C22.54 12.4134 22.8208 11.9662 23.1348 11.6141C23.5345 11.1383 24.0389 10.7433 24.6479 10.4293C25.2569 10.1153 25.8374 9.94872 26.3894 9.92969C26.4179 10.0534 26.4322 10.2009 26.4322 10.3722C26.4322 10.9432 26.3228 11.4999 26.1039 12.0423C25.885 12.5752 25.6043 13.051 25.2617 13.4697Z" fill="white"/>
</svg>