<svg xmlns="http://www.w3.org/2000/svg" width="36" height="37" viewBox="0 0 36 37" fill="none">
  <path d="M32.2222 5.73051H28.6667V4.20275C28.6667 3.39441 28.0622 2.65074 27.1911 2.5214C26.08 2.35973 25.1111 3.13574 25.1111 4.11383V5.73051H10.8889V4.20275C10.8889 3.39441 10.2844 2.65074 9.41333 2.5214C8.30222 2.35973 7.33333 3.13574 7.33333 4.11383V5.73051H3.77778C2.8 5.73051 2 6.45802 2 7.34719V11.3889H34V7.34719C34 6.45802 33.2 5.73051 32.2222 5.73051Z" fill="#1990FF"/>
  <path d="M32.2222 34.4978H3.77778C2.8 34.4978 2 33.7512 2 32.8356V11.3867H34V32.8356C34 33.7512 33.2 34.4978 32.2222 34.4978Z" fill="#D6EEFF"/>
  <path d="M18 29C21.866 29 25 25.866 25 22C25 18.134 21.866 15 18 15C14.134 15 11 18.134 11 22C11 25.866 14.134 29 18 29Z" fill="#1990FF" stroke="#1990FF" stroke-linecap="round" stroke-linejoin="round"/>
  <path d="M20.5884 19.6211L20.9419 19.2675C21.0447 19.3704 21.0977 19.5128 21.087 19.6578C21.0763 19.8028 21.0031 19.936 20.8863 20.0226L20.5884 19.6211ZM19.977 20.6972C19.7553 20.8618 19.4421 20.8154 19.2776 20.5936C19.113 20.3718 19.1594 20.0587 19.3812 19.8941L19.977 20.6972ZM14.9301 23.2661C15.0181 23.5279 14.8773 23.8114 14.6156 23.8994C14.3539 23.9875 14.0703 23.8466 13.9823 23.5849L14.9301 23.2661ZM20.2348 19.9746C18.983 18.7228 16.9534 18.7228 15.7016 19.9746L14.9945 19.2675C16.6368 17.6252 19.2996 17.6252 20.9419 19.2675L20.2348 19.9746ZM20.8863 20.0226L19.977 20.6972L19.3812 19.8941L20.2905 19.2195L20.8863 20.0226ZM15.7016 19.9746C14.8119 20.8643 14.5538 22.1474 14.9301 23.2661L13.9823 23.5849C13.4896 22.1202 13.8261 20.4359 14.9945 19.2675L15.7016 19.9746Z" fill="white"/>
  <path d="M15.4116 25.1641L15.0581 25.5176C14.9553 25.4148 14.9023 25.2723 14.913 25.1273C14.9237 24.9823 14.9969 24.8491 15.1137 24.7625L15.4116 25.1641ZM16.023 24.0879C16.2447 23.9234 16.5579 23.9698 16.7224 24.1916C16.887 24.4133 16.8406 24.7265 16.6188 24.891L16.023 24.0879ZM21.0699 21.519C20.9819 21.2573 21.1227 20.9738 21.3844 20.8857C21.6461 20.7977 21.9297 20.9385 22.0177 21.2002L21.0699 21.519ZM15.7652 24.8105C17.017 26.0623 19.0466 26.0623 20.2984 24.8105L21.0055 25.5176C19.3632 27.16 16.7004 27.16 15.0581 25.5176L15.7652 24.8105ZM15.1137 24.7625L16.023 24.0879L16.6188 24.891L15.7095 25.5656L15.1137 24.7625ZM20.2984 24.8105C21.1881 23.9209 21.4462 22.6377 21.0699 21.519L22.0177 21.2002C22.5104 22.665 22.1739 24.3492 21.0055 25.5176L20.2984 24.8105Z" fill="white"/>
</svg>