<svg xmlns="http://www.w3.org/2000/svg" width="36" height="37" viewBox="0 0 36 37" fill="none">
<path d="M30.5 7.90746H27.5V6.53247C27.5 5.80497 26.99 5.13566 26.255 5.01926C25.3175 4.87376 24.5 5.57217 24.5 6.45245V7.90746H12.5V6.53247C12.5 5.80497 11.99 5.13566 11.255 5.01926C10.3175 4.87376 9.5 5.57217 9.5 6.45245V7.90746H6.5C5.675 7.90746 5 8.56221 5 9.36247V13H32V9.36247C32 8.56221 31.325 7.90746 30.5 7.90746Z" fill="#1990FF"/>
<path d="M30.5 32H6.5C5.675 32 5 31.3862 5 30.6335V13H32V30.6335C32 31.3862 31.325 32 30.5 32Z" fill="#D6EEFF"/>
<path d="M14 21.4012L16.9727 24.8359C17.0492 24.9243 17.1848 24.9285 17.2667 24.8451L23 19" stroke="#1990FF" stroke-width="3" stroke-linecap="round"/>
</svg>