<svg xmlns="http://www.w3.org/2000/svg" width="28" height="28" viewBox="0 0 42 42" fill="none">
<path fill-rule="evenodd" clip-rule="evenodd" d="M1.58318 7.58318C2.35677 6.8096 3.40598 6.375 4.5 6.375C5.12132 6.375 5.625 6.87868 5.625 7.5C5.625 8.12132 5.12132 8.625 4.5 8.625C4.00272 8.625 3.52581 8.82254 3.17417 9.17417C2.82254 9.52581 2.625 10.0027 2.625 10.5V37.5C2.625 37.9973 2.82254 38.4742 3.17417 38.8258C3.52581 39.1775 4.00272 39.375 4.5 39.375H37.5C37.9973 39.375 38.4742 39.1775 38.8258 38.8258C39.1775 38.4742 39.375 37.9973 39.375 37.5V10.5C39.375 10.0027 39.1775 9.52581 38.8258 9.17417C38.4742 8.82254 37.9973 8.625 37.5 8.625H31.5C30.8787 8.625 30.375 8.12132 30.375 7.5C30.375 6.87868 30.8787 6.375 31.5 6.375H37.5C38.594 6.375 39.6432 6.8096 40.4168 7.58318C41.1904 8.35677 41.625 9.40598 41.625 10.5V37.5C41.625 38.594 41.1904 39.6432 40.4168 40.4168C39.6432 41.1904 38.594 41.625 37.5 41.625H4.5C3.40598 41.625 2.35677 41.1904 1.58318 40.4168C0.809597 39.6432 0.375 38.594 0.375 37.5V10.5C0.375 9.40598 0.809597 8.35677 1.58318 7.58318Z" fill="#A7A9AE"/>
<path fill-rule="evenodd" clip-rule="evenodd" d="M10.5 0.375C11.1213 0.375 11.625 0.87868 11.625 1.5V13.5C11.625 14.1213 11.1213 14.625 10.5 14.625C9.87868 14.625 9.375 14.1213 9.375 13.5V1.5C9.375 0.87868 9.87868 0.375 10.5 0.375Z" fill="#A7A9AE"/>
<path fill-rule="evenodd" clip-rule="evenodd" d="M31.5 0.375C32.1213 0.375 32.625 0.87868 32.625 1.5V13.5C32.625 14.1213 32.1213 14.625 31.5 14.625C30.8787 14.625 30.375 14.1213 30.375 13.5V1.5C30.375 0.87868 30.8787 0.375 31.5 0.375Z" fill="#A7A9AE"/>
<path fill-rule="evenodd" clip-rule="evenodd" d="M9.375 7.5C9.375 6.87868 9.87868 6.375 10.5 6.375H25.5C26.1213 6.375 26.625 6.87868 26.625 7.5C26.625 8.12132 26.1213 8.625 25.5 8.625H10.5C9.87868 8.625 9.375 8.12132 9.375 7.5Z" fill="#A7A9AE"/>
<path fill-rule="evenodd" clip-rule="evenodd" d="M14.8944 17.8959C15.3338 17.4566 16.0461 17.4566 16.4854 17.8959L27.1054 28.5159C27.5448 28.9553 27.5448 29.6676 27.1054 30.1069C26.6661 30.5462 25.9538 30.5462 25.5144 30.1069L14.8944 19.4869C14.4551 19.0476 14.4551 18.3353 14.8944 17.8959Z" fill="#A7A9AE"/>
<path fill-rule="evenodd" clip-rule="evenodd" d="M27.1054 17.8959C27.5448 18.3353 27.5448 19.0476 27.1054 19.4869L16.4854 30.1069C16.0461 30.5462 15.3338 30.5462 14.8944 30.1069C14.4551 29.6676 14.4551 28.9553 14.8944 28.5159L25.5144 17.8959C25.9538 17.4566 26.6661 17.4566 27.1054 17.8959Z" fill="#A7A9AE"/>
</svg>
