<svg width="36" height="37" viewBox="0 0 36 37" fill="none" xmlns="http://www.w3.org/2000/svg">
<path d="M24.6111 3.45317H21.8333V2.29303C21.8333 1.67919 21.3611 1.11447 20.6806 1.01625C19.8125 0.893486 19.0556 1.48277 19.0556 2.2255V3.45317H7.94444V2.29303C7.94444 1.67919 7.47222 1.11447 6.79167 1.01625C5.92361 0.893486 5.16667 1.48277 5.16667 2.2255V3.45317H2.38889C1.625 3.45317 1 4.00562 1 4.68084V7.75H26V4.68084C26 4.00562 25.375 3.45317 24.6111 3.45317Z" fill="#1990FF"/>
<path d="M24.6111 30.75H2.38889C1.625 30.75 1 30.0069 1 29.0958V7.75H26V29.0958C26 30.0069 25.375 30.75 24.6111 30.75Z" fill="#F2F3F5"/>
<path d="M9 16.4012L11.9727 19.8359C12.0492 19.9243 12.1848 19.9285 12.2667 19.8451L18 14" stroke="#1990FF" stroke-width="2" stroke-linecap="round"/>
<path d="M24.9126 24.5213C25.8217 24.5214 26.7105 24.2519 27.4664 23.7468C28.2224 23.2418 28.8116 22.5239 29.1596 21.684C29.5075 20.8441 29.5986 19.9199 29.4213 19.0282C29.244 18.1365 28.8062 17.3175 28.1634 16.6746C27.5206 16.0317 26.7016 15.5939 25.8099 15.4165C24.9182 15.2391 23.994 15.3301 23.1541 15.678C22.3141 16.0259 21.5962 16.615 21.0911 17.3709C20.586 18.1269 20.3164 19.0156 20.3164 19.9247C20.3164 20.5283 20.4352 21.126 20.6662 21.6837C20.8971 22.2414 21.2357 22.7481 21.6625 23.175C22.0893 23.6018 22.5959 23.9404 23.1536 24.1714C23.7113 24.4024 24.309 24.5213 24.9126 24.5213Z" fill="#1990FF"/>
<path d="M34.805 32.8663C34.4487 31.1418 33.5712 29.5683 32.2913 28.3589C32.2111 28.2866 32.1293 28.2154 32.0459 28.1454C30.3479 26.7382 27.7851 25.8436 24.9193 25.8477C21.6468 25.8522 18.7768 27.027 17.1357 28.7949L17.0948 28.8358C17.0539 28.8767 17.0191 28.9217 16.9799 28.9643C15.9387 30.0849 15.2535 31.4893 15.0111 32.9996C14.9791 33.2081 15.0168 33.4213 15.1183 33.6061C15.2197 33.791 15.3793 33.9373 15.5723 34.0223C15.7641 34.1074 15.9662 34.188 16.1728 34.2677C18.4566 35.1407 21.6067 35.6377 25.0772 35.5464C28.5321 35.4556 31.6413 35.1038 33.874 34.1192C34.0133 34.0579 34.1497 33.9953 34.283 33.9315C34.4764 33.838 34.633 33.6825 34.7277 33.4898C34.8224 33.297 34.8499 33.0781 34.8058 32.8679" fill="#1990FF"/>
</svg>
