<svg xmlns="http://www.w3.org/2000/svg" width="36" height="37" viewBox="0 0 36 37" fill="none">
<path d="M32.2222 5.73051H28.6667V4.20275C28.6667 3.39441 28.0622 2.65074 27.1911 2.5214C26.08 2.35973 25.1111 3.13574 25.1111 4.11383V5.73051H10.8889V4.20275C10.8889 3.39441 10.2844 2.65074 9.41333 2.5214C8.30222 2.35973 7.33333 3.13574 7.33333 4.11383V5.73051H3.77778C2.8 5.73051 2 6.45802 2 7.34719V11.3889H34V7.34719C34 6.45802 33.2 5.73051 32.2222 5.73051Z" fill="#1990FF"/>
<path d="M32.2222 34.4978H3.77778C2.8 34.4978 2 33.7512 2 32.8356V11.3867H34V32.8356C34 33.7512 33.2 34.4978 32.2222 34.4978Z" fill="#D6EEFF"/>
<path d="M18 29C21.866 29 25 25.866 25 22C25 18.134 21.866 15 18 15C14.134 15 11 18.134 11 22C11 25.866 14.134 29 18 29Z" fill="#1990FF" stroke="#1990FF" stroke-linecap="round" stroke-linejoin="round"/>
<path fill-rule="evenodd" clip-rule="evenodd" d="M18.0003 17.9766C17.7228 17.9766 17.4978 18.2016 17.4978 18.4791V21.4934H14.4825C14.205 21.4934 13.98 21.7184 13.98 21.996C13.98 22.2735 14.205 22.4985 14.4825 22.4985H17.4978V25.515C17.4978 25.7926 17.7228 26.0176 18.0003 26.0176C18.2779 26.0176 18.5029 25.7926 18.5029 25.515V22.4985H21.5184C21.796 22.4985 22.021 22.2735 22.021 21.996C22.021 21.7184 21.796 21.4934 21.5184 21.4934H18.5029V18.4791C18.5029 18.2016 18.2779 17.9766 18.0003 17.9766Z" fill="white"/>
</svg>