<svg width="current" height="current" viewBox="0 0 24 23" fill="none" xmlns="http://www.w3.org/2000/svg">
<g id="Group 1000003822">
<g id="Group">
<path id="Vector" d="M23.1431 6.57254C23.1431 6.11789 22.9625 5.68185 22.641 5.36036C22.3195 5.03887 21.8835 4.85826 21.4289 4.85826H18.5003C18.1855 4.85826 17.8891 4.71006 17.7003 4.45826L15.7288 1.82969C15.54 1.57788 15.2436 1.42969 14.9289 1.42969H9.07171C8.75695 1.42969 8.46056 1.57788 8.27171 1.82969L6.30028 4.45826C6.11142 4.71006 5.81504 4.85826 5.50028 4.85826H2.57171C2.11705 4.85826 1.68102 5.03887 1.35952 5.36036C1.03803 5.68185 0.857422 6.11789 0.857422 6.57254V19.8583C0.857422 20.3129 1.03803 20.7489 1.35952 21.0704C1.68102 21.3919 2.11705 21.5725 2.57171 21.5725H21.4289C21.8835 21.5725 22.3195 21.3919 22.641 21.0704C22.9625 20.7489 23.1431 20.3129 23.1431 19.8583V6.57254Z" fill="#1990FF" stroke="#1990FF" stroke-width="1.5" stroke-linecap="round" stroke-linejoin="round"/>
<path id="Vector_2" d="M12 18C14.7614 18 17 15.7614 17 13C17 10.2386 14.7614 8 12 8C9.23858 8 7 10.2386 7 13C7 15.7614 9.23858 18 12 18Z" fill="#1990FF" stroke="white" stroke-width="1.5" stroke-linecap="round" stroke-linejoin="round"/>
</g>
<circle id="Ellipse 1883" cx="20" cy="8" r="1" fill="white"/>
</g>
</svg>
