<svg xmlns="http://www.w3.org/2000/svg" width="24" height="24" viewBox="0 0 24 24" fill="none">
  <path d="M11.7425 23.0435C17.8965 23.0435 22.8853 18.0547 22.8853 11.9007C22.8853 5.74664 17.8965 0.757812 11.7425 0.757812C5.58844 0.757812 0.599609 5.74664 0.599609 11.9007C0.599609 18.0547 5.58844 23.0435 11.7425 23.0435Z" fill="#1990FF" stroke="#1990FF" stroke-linecap="round" stroke-linejoin="round"/>
  <path fill-rule="evenodd" clip-rule="evenodd" d="M17.1653 8.59983C17.487 8.9656 17.4602 9.52067 17.1049 9.85384L10.0714 16.4484C9.80504 16.6982 9.38674 16.6851 9.1365 16.4192L5.34008 12.385C5.00696 12.031 5.01492 11.4765 5.35807 11.1322C5.71711 10.772 6.30301 10.7804 6.65155 11.1508L9.49807 14.1756C9.59112 14.2745 9.74665 14.2794 9.8457 14.1865L15.8707 8.53748C16.2424 8.18896 16.8288 8.2172 17.1653 8.59983Z" fill="white"/>
</svg>