<svg width="24" height="23" viewBox="0 0 24 23" fill="none" xmlns="http://www.w3.org/2000/svg">
<g id="Group">
<path id="Vector" d="M1.71387 5.17969H23" stroke="#A7A9AE" stroke-width="1.5" stroke-linecap="round" stroke-linejoin="round"/>
<path id="Vector_2" d="M3 5.17969H21V21.1443C21 21.6147 20.7893 22.0659 20.4142 22.3986C20.0391 22.7312 19.5304 22.9181 19 22.9181H5C4.46957 22.9181 3.96086 22.7312 3.58579 22.3986C3.21071 22.0659 3 21.6147 3 21.1443V5.17969Z" fill="#A7A9AE"/>
<path id="Vector_3" d="M7.92188 6.177V5.29008C7.92188 4.11395 8.38909 2.98599 9.22074 2.15434C10.0524 1.32269 11.1804 0.855469 12.3565 0.855469C13.5326 0.855469 14.6606 1.32269 15.4922 2.15434C16.3239 2.98599 16.7911 4.11395 16.7911 5.29008V6.177" stroke="#A7A9AE" stroke-width="1.5" stroke-linecap="round" stroke-linejoin="round"/>
<path id="Vector_4" d="M9.69629 8.72656V18.4827" stroke="white" stroke-width="1.5" stroke-linecap="round" stroke-linejoin="round"/>
<path id="Vector_5" d="M15.0186 8.72656V18.4827" stroke="white" stroke-width="1.5" stroke-linecap="round" stroke-linejoin="round"/>
</g>
</svg>
