<svg width="19" height="15" viewBox="0 0 19 15" fill="none" xmlns="http://www.w3.org/2000/svg">
<g id="Group 1000003820">
<g id="Group 1000003819">
<circle id="Ellipse 1960" cx="9.16278" cy="3.87725" r="2.52778" transform="rotate(-15 9.16278 3.87725)" fill="#7FBC5A"/>
</g>
<rect id="Rectangle 39592481" y="4.82422" width="2.02222" height="7.07778" rx="1.01111" transform="rotate(-30 0 4.82422)" fill="#FFB950"/>
<g id="Group 1000003818">
<circle id="Ellipse 1960_2" cx="13.6501" cy="7.35469" r="4.55" fill="#FF5D46"/>
<g id="Group 1000003817">
<rect id="Rectangle 39592482" opacity="0.2" x="13.5068" y="6.92969" width="0.770374" height="2.31112" rx="0.385187" transform="rotate(-30 13.5068 6.92969)" fill="white"/>
<rect id="Rectangle 39592483" opacity="0.2" x="14.1743" y="6.54688" width="0.770374" height="2.31112" rx="0.385187" transform="rotate(-120 14.1743 6.54688)" fill="white"/>
<rect id="Rectangle 39592484" opacity="0.2" x="13.791" y="5.87891" width="0.770374" height="2.31112" rx="0.385187" transform="rotate(150 13.791 5.87891)" fill="white"/>
<rect id="Rectangle 39592485" opacity="0.2" x="13.1235" y="6.26172" width="0.770374" height="2.31112" rx="0.385187" transform="rotate(60 13.1235 6.26172)" fill="white"/>
</g>
</g>
<path id="Vector" d="M9.63453 7.24749C9.91479 7.60837 9.91479 8.11333 9.63453 8.47421L9.49182 8.65797C9.34432 8.84789 9.27021 9.08461 9.28305 9.32474L9.29547 9.55679C9.32055 10.0256 9.01606 10.4488 8.56353 10.574L8.42225 10.6131C8.17767 10.6808 7.96796 10.8389 7.83563 11.0554L7.76053 11.1783C7.50448 11.5972 6.98214 11.7683 6.52785 11.582L6.44584 11.5484C6.20272 11.4487 5.93012 11.4487 5.68699 11.5484L5.60499 11.582C5.1507 11.7683 4.62836 11.5972 4.3723 11.1783L4.29721 11.0554C4.16487 10.8389 3.95516 10.6808 3.71059 10.6131L3.5693 10.574C3.11678 10.4488 2.81229 10.0256 2.83737 9.55679L2.84978 9.32474C2.86263 9.08461 2.78851 8.84789 2.64101 8.65797L2.49811 8.47396C2.21794 8.11319 2.21784 7.60843 2.49787 7.24755L2.64127 7.06275C2.78861 6.87287 2.86263 6.63628 2.84979 6.39628L2.83737 6.16401C2.81229 5.69516 3.11678 5.27199 3.5693 5.1468L3.71077 5.10766C3.95524 5.04003 4.16487 4.88203 4.29722 4.66564L4.37221 4.54304C4.62834 4.12428 5.15055 3.95334 5.60472 4.13959L5.68699 4.17333C5.93012 4.27303 6.20272 4.27303 6.44584 4.17333L6.52812 4.13959C6.98229 3.95334 7.5045 4.12428 7.76062 4.54304L7.83561 4.66564C7.96796 4.88203 8.17759 5.04003 8.42206 5.10766L8.56356 5.14681C9.01607 5.272 9.32056 5.69514 9.29549 6.16399L9.28304 6.39698C9.2702 6.6371 9.34432 6.8738 9.49181 7.06372L9.63453 7.24749Z" fill="#9CD878"/>
<path id="Rectangle 39592480" d="M1.01123 8.87109H18.2001C18.2001 12.2565 15.4557 15.001 12.0703 15.001H7.1411C3.75567 15.001 1.01123 12.2565 1.01123 8.87109Z" fill="#E2E4E8"/>
</g>
</svg>
