<svg xmlns="http://www.w3.org/2000/svg" width="36" height="37" viewBox="0 0 36 37" fill="none">
<path fill-rule="evenodd" clip-rule="evenodd" d="M3 1.5H27.3839V32.8508H3V1.5ZM3.00025 10.7222V1.50142H12.3787L3.00025 10.7222Z" fill="#F2F3F5"/>
<path d="M12 10.5547V1.55469L3 10.5547H12Z" fill="#CBCFD3"/>
<path d="M22.0024 23.5213C22.9116 23.5214 23.8003 23.2519 24.5563 22.7468C25.3122 22.2418 25.9014 21.5239 26.2494 20.684C26.5974 19.8441 26.6885 18.9199 26.5112 18.0282C26.3338 17.1365 25.8961 16.3175 25.2533 15.6746C24.6104 15.0317 23.7914 14.5939 22.8997 14.4165C22.0081 14.2391 21.0838 14.3301 20.2439 14.678C19.404 15.0259 18.686 15.615 18.1809 16.3709C17.6758 17.1269 17.4063 18.0156 17.4063 18.9247C17.4062 19.5283 17.525 20.126 17.756 20.6837C17.987 21.2414 18.3255 21.7481 18.7523 22.175C19.1791 22.6018 19.6858 22.9404 20.2435 23.1714C20.8011 23.4024 21.3988 23.5213 22.0024 23.5213Z" fill="#398DFD"/>
<path d="M31.8948 31.8663C31.5385 30.1418 30.6611 28.5683 29.3812 27.3589C29.301 27.2866 29.2192 27.2154 29.1357 27.1454C27.4377 25.7382 24.875 24.8436 22.0091 24.8477C18.7366 24.8522 15.8667 26.027 14.2255 27.7949L14.1846 27.8358C14.1437 27.8767 14.109 27.9217 14.0697 27.9643C13.0286 29.0849 12.3434 30.4893 12.1009 31.9996C12.069 32.2081 12.1067 32.4213 12.2081 32.6061C12.3096 32.791 12.4691 32.9373 12.6621 33.0223C12.854 33.1074 13.0561 33.188 13.2626 33.2677C15.5464 34.1407 18.6966 34.6377 22.167 34.5464C25.6219 34.4556 28.7312 34.1038 30.9638 33.1192C31.1032 33.0579 31.2395 32.9953 31.3729 32.9315C31.5663 32.838 31.7228 32.6825 31.8175 32.4898C31.9123 32.297 31.9398 32.0781 31.8956 31.8679" fill="#398DFD"/>
</svg>