<svg width="18" height="16" viewBox="0 0 18 16" fill="none" xmlns="http://www.w3.org/2000/svg">
<g id="Group 1000003821">
<path id="Vector" d="M14.0625 1.45373H12.1875V0.766237C12.1875 0.402484 11.8687 0.0678315 11.4094 0.00963102C10.8234 -0.0631196 10.3125 0.286083 10.3125 0.726224V1.45373H4.6875V0.766237C4.6875 0.402484 4.36875 0.0678315 3.90938 0.00963102C3.32344 -0.0631196 2.8125 0.286083 2.8125 0.726224V1.45373H0.9375C0.421875 1.45373 0 1.78111 0 2.18124V4H15V2.18124C15 1.78111 14.5781 1.45373 14.0625 1.45373Z" fill="#CBCFD3"/>
<path id="Vector_2" d="M14.1667 13H0.833333C0.375 13 0 12.7092 0 12.3527V4H15V12.3527C15 12.7092 14.625 13 14.1667 13Z" fill="#F2F3F5"/>
<g id="Group 1000003817">
<path id="Vector 1511" d="M8.05597 14.0308L9.11182 10.8633L11.2235 12.975L8.05597 14.0308Z" fill="#FFE5BF"/>
<path id="Intersect" fill-rule="evenodd" clip-rule="evenodd" d="M8.42159 12.9336L8.05566 14.0314L9.15344 13.6654L8.42159 12.9336Z" fill="#2E3134"/>
<rect id="Rectangle 39591663" x="14.9189" y="5.05469" width="2.98637" height="8.21252" transform="rotate(45 14.9189 5.05469)" fill="#FFB950"/>
<path id="Rectangle 39591664" d="M15.267 4.70711C15.6575 4.31658 16.2907 4.31658 16.6812 4.70711L17.3787 5.40458C17.7692 5.7951 17.7692 6.42827 17.3787 6.81879L17.03 7.16752L14.9183 5.05584L15.267 4.70711Z" fill="#FFA450"/>
</g>
</g>
</svg>
