<svg xmlns="http://www.w3.org/2000/svg" width="24" height="24" viewBox="0 0 24 24" fill="none">
<path d="M8.96551 3.85547L9.70265 1.95261C9.82697 1.63044 10.0457 1.35332 10.3302 1.15755C10.6146 0.961778 10.9516 0.856489 11.2969 0.855469H12.7027C13.048 0.856489 13.3849 0.961778 13.6694 1.15755C13.9539 1.35332 14.1726 1.63044 14.2969 1.95261L15.0341 3.85547L17.5369 5.29547L19.5598 4.9869C19.8966 4.94118 20.2394 4.99663 20.5447 5.14619C20.8499 5.29576 21.1038 5.5327 21.2741 5.8269L21.9598 7.0269C22.1355 7.32578 22.2165 7.67092 22.192 8.01676C22.1675 8.3626 22.0387 8.69289 21.8226 8.96404L20.5712 10.5583V13.4383L21.8569 15.0326C22.073 15.3038 22.2018 15.634 22.2263 15.9799C22.2507 16.3257 22.1698 16.6709 21.9941 16.9698L21.3084 18.1698C21.1381 18.464 20.8842 18.7009 20.579 18.8505C20.2737 19 19.9309 19.0555 19.5941 19.0098L17.5712 18.7012L15.0684 20.1412L14.3312 22.044C14.2069 22.3662 13.9882 22.6433 13.7037 22.8391C13.4192 23.0349 13.0823 23.1402 12.7369 23.1412H11.2969C10.9516 23.1402 10.6146 23.0349 10.3302 22.8391C10.0457 22.6433 9.82697 22.3662 9.70265 22.044L8.96551 20.1412L6.46265 18.7012L4.43979 19.0098C4.10296 19.0555 3.76015 19 3.45491 18.8505C3.14966 18.7009 2.89578 18.464 2.72551 18.1698L2.03979 16.9698C1.86408 16.6709 1.78313 16.3257 1.80761 15.9799C1.83209 15.634 1.96087 15.3038 2.17694 15.0326L3.42836 13.4383V10.5583L2.14265 8.96404C1.92658 8.69289 1.79781 8.3626 1.77332 8.01676C1.74884 7.67092 1.8298 7.32578 2.00551 7.0269L2.69122 5.8269C2.86149 5.5327 3.11538 5.29576 3.42062 5.14619C3.72586 4.99663 4.06868 4.94118 4.40551 4.9869L6.42836 5.29547L8.96551 3.85547ZM8.57122 11.9983C8.57122 12.6764 8.7723 13.3393 9.14904 13.9031C9.52578 14.467 10.0612 14.9064 10.6877 15.1659C11.3142 15.4254 12.0036 15.4933 12.6687 15.361C13.3338 15.2287 13.9447 14.9022 14.4242 14.4227C14.9037 13.9432 15.2302 13.3323 15.3625 12.6672C15.4948 12.0021 15.4269 11.3128 15.1674 10.6863C14.9079 10.0598 14.4684 9.52431 13.9046 9.14757C13.3408 8.77084 12.6779 8.56975 11.9998 8.56975C11.0905 8.56975 10.2184 8.93098 9.57543 9.57396C8.93244 10.2169 8.57122 11.089 8.57122 11.9983Z" stroke="black" stroke-width="1.5" stroke-linecap="round" stroke-linejoin="round"/>
</svg>