<svg xmlns="http://www.w3.org/2000/svg" width="14" height="14" viewBox="0 0 14 14" fill="none">
  <g clip-path="url(#clip0_433_2200)">
    <path fill-rule="evenodd" clip-rule="evenodd" d="M14.0001 7.15919C14.0001 6.66263 13.9543 6.18585 13.8702 5.72754H7.14307V8.43522H10.9874C10.8219 9.3103 10.3186 10.0515 9.5622 10.5481V12.3042H11.871C13.2215 11.0855 14.0007 9.29118 14.0007 7.15919H14.0001Z" fill="#3E82F1"/>
    <path fill-rule="evenodd" clip-rule="evenodd" d="M7.14304 14C9.07161 14 10.6886 13.3728 11.8703 12.3039L9.5615 10.5478C8.92155 10.9679 8.10396 11.2158 7.14237 11.2158C5.28176 11.2158 3.70713 9.98462 3.14525 8.33008H0.759766V10.1436C1.93535 12.4312 4.35044 14 7.14304 14Z" fill="#32A753"/>
    <path fill-rule="evenodd" clip-rule="evenodd" d="M3.14588 8.33011C3.00322 7.91005 2.9218 7.46163 2.9218 7.00002C2.9218 6.5384 3.00322 6.08998 3.14588 5.66992V3.85645H0.759721C0.275895 4.80143 0 5.87039 0 7.00002C0 8.12964 0.275895 9.1986 0.759721 10.1436L3.14588 8.33011Z" fill="#F9BB00"/>
    <path fill-rule="evenodd" clip-rule="evenodd" d="M7.14304 2.78417C8.19144 2.78417 9.13352 3.13764 9.87373 3.83071L11.9228 1.8227C10.6853 0.693735 9.06825 0 7.14304 0C4.35044 0 1.93535 1.56882 0.759766 3.85643L3.14592 5.6699C3.70781 4.01536 5.28243 2.78417 7.14304 2.78417Z" fill="#E74133"/>
  </g>
  <defs>
    <clipPath id="clip0_433_2200">
      <rect width="14" height="14" fill="white"/>
    </clipPath>
  </defs>
</svg>