<svg xmlns="http://www.w3.org/2000/svg" width="22" height="21" viewBox="0 0 22 21" fill="none">
  <g clip-path="url(#clip0_5830_20621)">
    <path fill-rule="evenodd" clip-rule="evenodd" d="M21.2669 10.8605C21.2669 10.1322 21.1998 9.43294 21.0764 8.76074H11.21V12.732H16.8484C16.6056 14.0155 15.8673 15.1026 14.758 15.8309V18.4065H18.1442C20.125 16.6191 21.2679 13.9874 21.2679 10.8605H21.2669Z" fill="#3E82F1"/>
    <path fill-rule="evenodd" clip-rule="evenodd" d="M11.2098 20.8937C14.0384 20.8937 16.41 19.9739 18.1431 18.4061L14.7569 15.8305C13.8183 16.4466 12.6191 16.8103 11.2088 16.8103C8.47991 16.8103 6.17046 15.0045 5.34637 12.5779H1.84766V15.2376C3.57184 18.5928 7.11398 20.8937 11.2098 20.8937Z" fill="#32A753"/>
    <path fill-rule="evenodd" clip-rule="evenodd" d="M5.34735 12.5779C5.13812 11.9618 5.0187 11.3041 5.0187 10.627C5.0187 9.95002 5.13812 9.29233 5.34735 8.67624V6.01648H1.84766C1.13804 7.40246 0.733398 8.97026 0.733398 10.627C0.733398 12.2838 1.13804 13.8516 1.84766 15.2376L5.34735 12.5779Z" fill="#F9BB00"/>
    <path fill-rule="evenodd" clip-rule="evenodd" d="M11.2098 4.44381C12.7474 4.44381 14.1292 4.96222 15.2148 5.97873L18.22 3.03365C16.4051 1.37783 14.0334 0.360352 11.2098 0.360352C7.11398 0.360352 3.57184 2.66128 1.84766 6.01645L5.34735 8.67621C6.17145 6.24954 8.48089 4.44381 11.2098 4.44381Z" fill="#E74133"/>
  </g>
  <defs>
    <clipPath id="clip0_5830_20621">
      <rect width="20.5333" height="20.5333" fill="white" transform="translate(0.733398 0.360352)"/>
    </clipPath>
  </defs>
</svg>