<svg xmlns="http://www.w3.org/2000/svg" width="18" height="13" viewBox="0 0 18 13" fill="none">
<path fill-rule="evenodd" clip-rule="evenodd" d="M13.3512 2.28906C11.9302 2.28906 10.7783 3.44098 10.7783 4.86195C10.7783 6.28292 11.9302 7.43484 13.3512 7.43484C14.7722 7.43484 15.9241 6.28292 15.9241 4.86195C15.9241 3.44098 14.7722 2.28906 13.3512 2.28906Z" fill="#A7A9AE"/>
<path fill-rule="evenodd" clip-rule="evenodd" d="M12.9448 11.812H17.3806C17.5256 11.812 17.6619 11.7427 17.7474 11.6256C17.8329 11.5084 17.8572 11.3575 17.8129 11.2193C17.5099 10.2743 16.9145 9.44984 16.1127 8.86493C15.3109 8.28002 14.344 7.96484 13.3515 7.96484C12.503 7.96484 11.6732 8.19523 10.9492 8.62759C11.8605 9.47754 12.5435 10.5498 12.927 11.7456C12.9341 11.7676 12.94 11.7897 12.9448 11.812Z" fill="#A7A9AE"/>
<path fill-rule="evenodd" clip-rule="evenodd" d="M2.68963 3.69982C2.68963 1.82258 4.21143 0.300781 6.08867 0.300781C7.96591 0.300781 9.48771 1.82258 9.48771 3.69982C9.48771 5.57706 7.96591 7.09886 6.08867 7.09886C4.21143 7.09886 2.68963 5.57706 2.68963 3.69982ZM2.44089 8.80396C3.50017 8.03124 4.77748 7.61486 6.08866 7.61486C7.39983 7.61486 8.67714 8.03124 9.73642 8.80396C10.7957 9.57668 11.5822 10.6658 11.9826 11.9144C12.0411 12.0968 12.009 12.2963 11.8961 12.451C11.7831 12.6058 11.6031 12.6974 11.4115 12.6974H0.765851C0.574247 12.6974 0.394173 12.6058 0.281254 12.451C0.168336 12.2963 0.136162 12.0968 0.194672 11.9144C0.595064 10.6658 1.3816 9.57668 2.44089 8.80396Z" fill="#A7A9AE"/>
</svg>