<svg xmlns="http://www.w3.org/2000/svg" width="24" height="24" viewBox="0 0 24 24" fill="none">
<mask id="path-1-inside-1_146_860" fill="white">
<path fill-rule="evenodd" clip-rule="evenodd" d="M21.8736 11.2866C21.9584 11.4827 22.0014 11.6942 22 11.9077V20.4615C22 20.8696 21.8379 21.2609 21.5494 21.5494C21.2608 21.8379 20.8695 22 20.4615 22H14V16H10V22H3.53849C3.13047 22 2.73916 21.8379 2.45064 21.5494C2.16212 21.2609 2.00004 20.8696 2.00004 20.4615V11.9077C1.99859 11.6942 2.04162 11.4827 2.12637 11.2866C2.21113 11.0906 2.33576 10.9144 2.49234 10.7692L12 2L21.5077 10.7692C21.6642 10.9144 21.7889 11.0906 21.8736 11.2866Z"/>
</mask>
<path d="M22 11.9077L20.5 11.8975V11.9077H22ZM21.8736 11.2866L23.2504 10.6913L23.2504 10.6913L21.8736 11.2866ZM21.5494 21.5494L20.4887 20.4887L20.4887 20.4887L21.5494 21.5494ZM14 22H12.5C12.5 22.8284 13.1716 23.5 14 23.5V22ZM14 16H15.5C15.5 15.1716 14.8284 14.5 14 14.5V16ZM10 16V14.5C9.17157 14.5 8.5 15.1716 8.5 16H10ZM10 22V23.5C10.8284 23.5 11.5 22.8284 11.5 22H10ZM2.45064 21.5494L3.5113 20.4887L3.5113 20.4887L2.45064 21.5494ZM2.00004 11.9077H3.50007L3.5 11.8975L2.00004 11.9077ZM2.12637 11.2866L0.749587 10.6913L2.12637 11.2866ZM2.49234 10.7692L1.47536 9.66661L1.47237 9.66938L2.49234 10.7692ZM12 2L13.017 0.897386C12.4425 0.367538 11.5575 0.367538 10.983 0.897386L12 2ZM21.5077 10.7692L22.5276 9.66937L22.5246 9.66662L21.5077 10.7692ZM23.4999 11.9178C23.5028 11.4961 23.4178 11.0784 23.2504 10.6913L20.4968 11.882C20.499 11.8869 20.5 11.8922 20.5 11.8975L23.4999 11.9178ZM23.5 20.4615V11.9077H20.5V20.4615H23.5ZM22.61 22.6101C23.1798 22.0402 23.5 21.2674 23.5 20.4615H20.5C20.5 20.4717 20.4959 20.4815 20.4887 20.4887L22.61 22.6101ZM20.4615 23.5C21.2674 23.5 22.0402 23.1799 22.61 22.6101L20.4887 20.4887C20.4815 20.4959 20.4717 20.5 20.4615 20.5V23.5ZM14 23.5H20.4615V20.5H14V23.5ZM12.5 16V22H15.5V16H12.5ZM10 17.5H14V14.5H10V17.5ZM11.5 22V16H8.5V22H11.5ZM3.53849 23.5H10V20.5H3.53849V23.5ZM1.38997 22.6101C1.9598 23.1799 2.73264 23.5 3.53849 23.5V20.5C3.52829 20.5 3.51851 20.4959 3.5113 20.4887L1.38997 22.6101ZM0.500035 20.4615C0.500035 21.2674 0.820156 22.0402 1.38998 22.6101L3.5113 20.4887C3.50409 20.4815 3.50004 20.4717 3.50004 20.4615H0.500035ZM0.500035 11.9077V20.4615H3.50004V11.9077H0.500035ZM0.749587 10.6913C0.582191 11.0784 0.497216 11.4961 0.50007 11.9178L3.5 11.8975C3.49996 11.8922 3.50104 11.8869 3.50316 11.882L0.749587 10.6913ZM1.47237 9.66938C1.16313 9.95616 0.916983 10.3042 0.749587 10.6913L3.50316 11.882C3.50528 11.8771 3.50839 11.8727 3.51231 11.8691L1.47237 9.66938ZM10.983 0.897386L1.47536 9.66662L3.50932 11.8718L13.017 3.10261L10.983 0.897386ZM22.5246 9.66662L13.017 0.897386L10.983 3.10261L20.4907 11.8718L22.5246 9.66662ZM23.2504 10.6913C23.083 10.3042 22.8369 9.95616 22.5276 9.66938L20.4877 11.8691C20.4916 11.8727 20.4947 11.8771 20.4968 11.882L23.2504 10.6913Z" fill="black" mask="url(#path-1-inside-1_146_860)"/>
</svg>