<svg xmlns="http://www.w3.org/2000/svg" width="24" height="24" viewBox="0 0 24 24" fill="none">
<path d="M0 12C0 5.37258 5.37258 0 12 0C18.6274 0 24 5.37258 24 12C24 18.6274 18.6274 24 12 24C5.37258 24 0 18.6274 0 12Z" fill="#1990FF"/>
<path d="M13.6174 17.53C14.1847 17.8965 14.8606 18.0563 15.5317 17.9823C16.2027 17.9084 16.8278 17.6053 17.302 17.1241L17.7165 16.7182C17.8982 16.532 18 16.282 18 16.0216C18 15.7613 17.8982 15.5112 17.7165 15.3251L15.9571 13.5814C15.7728 13.4 15.5247 13.2983 15.2663 13.2983C15.0078 13.2983 14.7597 13.4 14.5754 13.5814C14.3895 13.7634 14.1399 13.8653 13.8799 13.8653C13.62 13.8653 13.3703 13.7634 13.1845 13.5814L10.421 10.8137C10.3288 10.7227 10.2556 10.6143 10.2056 10.4947C10.1557 10.3751 10.1299 10.2468 10.1299 10.1172C10.1299 9.98756 10.1557 9.85923 10.2056 9.73965C10.2556 9.62007 10.3288 9.51163 10.421 9.42065C10.6021 9.23604 10.7037 8.98756 10.7037 8.72872C10.7037 8.46989 10.6021 8.2214 10.421 8.0368L8.67081 6.28392C8.48493 6.10191 8.2353 6 7.97534 6C7.71539 6 7.46576 6.10191 7.27987 6.28392L6.87457 6.69907C6.39404 7.17396 6.09144 7.80007 6.01762 8.47213C5.94381 9.14418 6.10329 9.8212 6.46926 10.3893C8.37608 13.2038 10.8023 15.6275 13.6174 17.53Z" fill="white"/>
</svg>