<svg xmlns="http://www.w3.org/2000/svg" width="24" height="20" viewBox="0 0 24 20" fill="#86888D">
<path d="M23.1429 6.57254C23.1429 6.11789 22.9622 5.68185 22.6408 5.36036C22.3193 5.03887 21.8832 4.85826 21.4286 4.85826H18L15.4286 1.42969H8.57143L6 4.85826H2.57143C2.11678 4.85826 1.68074 5.03887 1.35925 5.36036C1.03776 5.68185 0.857147 6.11789 0.857147 6.57254V16.8583C0.857147 17.3129 1.03776 17.7489 1.35925 18.0704C1.68074 18.3919 2.11678 18.5725 2.57143 18.5725H21.4286C21.8832 18.5725 22.3193 18.3919 22.6408 18.0704C22.9622 17.7489 23.1429 17.3129 23.1429 16.8583V6.57254Z" fill="#86888D" stroke="#86888D" stroke-width="1.5" stroke-linecap="round" stroke-linejoin="round"/>
<path d="M12 14.7143C14.1303 14.7143 15.8572 12.9874 15.8572 10.8571C15.8572 8.7269 14.1303 7 12 7C9.86977 7 8.14287 8.7269 8.14287 10.8571C8.14287 12.9874 9.86977 14.7143 12 14.7143Z" fill="current" stroke="white" stroke-width="1.5" stroke-linecap="round" stroke-linejoin="round"/>
</svg>