<svg xmlns="http://www.w3.org/2000/svg" width="4" height="16" viewBox="0 0 4 16" fill="none">
<path d="M1.99993 4.00084C2.9467 4.00084 3.71422 3.23333 3.71422 2.28655C3.71422 1.33978 2.9467 0.572266 1.99993 0.572266C1.05316 0.572266 0.285645 1.33978 0.285645 2.28655C0.285645 3.23333 1.05316 4.00084 1.99993 4.00084Z" fill="black"/>
<path d="M1.99993 9.71568C2.9467 9.71568 3.71422 8.94817 3.71422 8.0014C3.71422 7.05462 2.9467 6.28711 1.99993 6.28711C1.05316 6.28711 0.285645 7.05462 0.285645 8.0014C0.285645 8.94817 1.05316 9.71568 1.99993 9.71568Z" fill="black"/>
<path d="M1.99993 15.4286C2.9467 15.4286 3.71422 14.6611 3.71422 13.7143C3.71422 12.7675 2.9467 12 1.99993 12C1.05316 12 0.285645 12.7675 0.285645 13.7143C0.285645 14.6611 1.05316 15.4286 1.99993 15.4286Z" fill="black"/>
</svg>