<svg xmlns="http://www.w3.org/2000/svg" width="19" height="18" viewBox="0 0 19 18" fill="none">
<path d="M17.5 1.81716H15.5V0.957796C15.5 0.503105 15.16 0.0847893 14.67 0.0120388C14.045 -0.0788994 13.5 0.357604 13.5 0.90778V1.81716H5.5V0.957796C5.5 0.503105 5.16 0.0847893 4.67 0.0120388C4.045 -0.0788994 3.5 0.357604 3.5 0.90778V1.81716H1.5C0.95 1.81716 0.5 2.22638 0.5 2.72654V5H18.5V2.72654C18.5 2.22638 18.05 1.81716 17.5 1.81716Z" fill="#1990FF"/>
<path d="M17.5 18H1.5C0.95 18 0.5 17.58 0.5 17.065V5H18.5V17.065C18.5 17.58 18.05 18 17.5 18Z" fill="#D6EEFF"/>
<path d="M6.5 11.6008L8.43443 13.8359C8.51092 13.9243 8.64658 13.9285 8.72844 13.8451L12.5 10" stroke="#1990FF" stroke-width="2" stroke-linecap="round"/>
</svg>