<svg xmlns="http://www.w3.org/2000/svg" width="15" height="15" viewBox="0 0 15 15" fill="none" stroke="#86888D">
<path d="M7.25391 1C8.38444 1.00035 9.49372 1.30735 10.4636 1.88828C11.4334 2.46922 12.2276 3.30234 12.7614 4.29892C13.2952 5.2955 13.5487 6.4182 13.4949 7.54746C13.4411 8.67672 13.082 9.77023 12.4558 10.7115L13.5039 13.5L9.99429 12.8654C9.14919 13.2784 8.22177 13.4953 7.28117 13.4999C6.34057 13.5046 5.41105 13.2969 4.56189 12.8923C3.71274 12.4877 2.96586 11.8967 2.37693 11.1633C1.78799 10.4298 1.37219 9.57294 1.16052 8.65645C0.948854 7.73997 0.946777 6.78752 1.15445 5.87012C1.36211 4.95272 1.77417 4.09403 2.3599 3.35804C2.94563 2.62206 3.68993 2.02778 4.53731 1.61949C5.38469 1.2112 6.31329 0.999446 7.25391 1V1Z" stroke="current" stroke-width="1.5" stroke-linecap="round" stroke-linejoin="round"/>
</svg>