<svg xmlns="http://www.w3.org/2000/svg" width="32" height="32" viewBox="0 0 32 32" fill="none">
<path d="M28.0196 18.4166C28.0196 25.1362 22.6384 30.2574 16.0003 30.2574C9.36212 30.2574 3.98096 25.1362 3.98096 18.4166C3.98096 11.6971 9.36212 6.25 16.0003 6.25C22.6384 6.25 28.0196 11.6971 28.0196 18.4166Z" fill="#FFB950"/>
<path d="M16 32C7.02808 32 0 25.0581 0 16.1958C0 7.33349 7.1774 0 16 0C24.8226 0 32 7.26538 32 16.1958C32 25.1262 24.9719 32 16 32Z" fill="#FFD336"/>
<path d="M16.0007 2.25586C8.39907 2.25586 2.21436 8.51604 2.21436 16.2109C2.21436 23.9057 8.27001 29.7476 16.0007 29.7476C23.7314 29.7476 29.7871 23.8015 29.7871 16.2109C29.7871 8.62028 23.6027 2.25586 16.0007 2.25586Z" fill="#FFB800"/>
<path d="M16.0001 2.93359C8.58582 2.93359 2.5542 9.03916 2.5542 16.5443C2.5542 24.0494 8.46019 29.7467 16.0001 29.7467C23.5399 29.7467 29.4459 23.9476 29.4459 16.5443C29.4459 9.14096 23.4143 2.93359 16.0001 2.93359Z" fill="#FCCC22"/>
<path fill-rule="evenodd" clip-rule="evenodd" d="M19.5946 3.36273L2.92282 20.2579C2.5684 19.0519 2.37891 17.7656 2.37891 16.4212C2.37891 8.91611 8.41053 2.81055 15.8248 2.81055C17.1329 2.81055 18.398 3.00378 19.5946 3.36273Z" fill="#FFD952"/>
</svg>