<svg width="18" height="18" viewBox="0 0 18 18" fill="none" xmlns="http://www.w3.org/2000/svg">
<g id="CALENDER">
<path id="Vector" d="M17 1.81716H15V0.957796C15 0.503105 14.66 0.0847893 14.17 0.0120388C13.545 -0.0788994 13 0.357604 13 0.90778V1.81716H5V0.957796C5 0.503105 4.66 0.0847893 4.17 0.0120388C3.545 -0.0788994 3 0.357604 3 0.90778V1.81716H1C0.45 1.81716 0 2.22638 0 2.72654V5H18V2.72654C18 2.22638 17.55 1.81716 17 1.81716Z" fill="#1990FF"/>
<path id="Vector_2" d="M17 18H1C0.45 18 0 17.58 0 17.065V5H18V17.065C18 17.58 17.55 18 17 18Z" fill="#D6EEFF"/>
<path id="Vector 1509" d="M6 11.6008L7.93443 13.8359C8.01092 13.9243 8.14658 13.9285 8.22844 13.8451L12 10" stroke="#1990FF" stroke-width="2" stroke-linecap="round"/>
</g>
</svg>
