<svg width="20" height="14" viewBox="0 0 20 14" fill="none" xmlns="http://www.w3.org/2000/svg">
<g id="Group">
<path id="Vector" d="M10 9C10.5304 9 11.0391 8.78929 11.4142 8.41421C11.7893 8.03914 12 7.53043 12 7C12 6.46957 11.7893 5.96086 11.4142 5.58579C11.0391 5.21071 10.5304 5 10 5C9.46957 5 8.96086 5.21071 8.58579 5.58579C8.21071 5.96086 8 6.46957 8 7C8 7.53043 8.21071 8.03914 8.58579 8.41421C8.96086 8.78929 9.46957 9 10 9Z" fill="#A7A9AE"/>
<path id="Vector_2" fill-rule="evenodd" clip-rule="evenodd" d="M0.458008 7C1.73201 2.943 5.52201 0 10 0C14.478 0 18.268 2.943 19.542 7C18.268 11.057 14.478 14 10 14C5.52201 14 1.73201 11.057 0.458008 7ZM14 7C14 8.06087 13.5786 9.07828 12.8284 9.82843C12.0783 10.5786 11.0609 11 10 11C8.93914 11 7.92173 10.5786 7.17158 9.82843C6.42143 9.07828 6.00001 8.06087 6.00001 7C6.00001 5.93913 6.42143 4.92172 7.17158 4.17157C7.92173 3.42143 8.93914 3 10 3C11.0609 3 12.0783 3.42143 12.8284 4.17157C13.5786 4.92172 14 5.93913 14 7Z" fill="#A7A9AE"/>
</g>
</svg>
