<svg width="20" height="16" viewBox="0 0 20 16" fill="none" xmlns="http://www.w3.org/2000/svg">
<g id="Group">
<path id="Vector" fill-rule="evenodd" clip-rule="evenodd" d="M3.70692 0.293407C3.51832 0.111249 3.26571 0.0104547 3.00352 0.0127331C2.74132 0.0150115 2.49051 0.12018 2.3051 0.305589C2.11969 0.490997 2.01452 0.741809 2.01224 1.00401C2.00997 1.2662 2.11076 1.5188 2.29292 1.70741L16.2929 15.7074C16.4815 15.8896 16.7341 15.9904 16.9963 15.9881C17.2585 15.9858 17.5093 15.8806 17.6947 15.6952C17.8801 15.5098 17.9853 15.259 17.9876 14.9968C17.9899 14.7346 17.8891 14.482 17.7069 14.2934L16.2339 12.8204C17.7914 11.5785 18.9432 9.90033 19.5419 8.00041C18.2679 3.94341 14.4779 1.00041 9.99992 1.00041C8.43235 0.998281 6.88642 1.36626 5.48792 2.07441L3.70692 0.293407ZM7.96792 4.55341L9.48192 6.06841C9.82101 5.97836 10.1778 5.97895 10.5166 6.07014C10.8554 6.16132 11.1643 6.33989 11.4124 6.58797C11.6604 6.83606 11.839 7.14495 11.9302 7.48374C12.0214 7.82252 12.022 8.17932 11.9319 8.51841L13.4459 10.0324C13.8969 9.26843 14.0811 8.3762 13.9696 7.49608C13.858 6.61596 13.4571 5.7979 12.8297 5.17059C12.2024 4.54327 11.3844 4.1423 10.5042 4.03076C9.62412 3.91921 8.7319 4.10242 7.96792 4.55341Z" fill="#A7A9AE"/>
<path id="Vector_2" d="M12.454 14.6971L9.75001 11.9921C8.77769 11.9312 7.86103 11.5175 7.17206 10.8288C6.4831 10.14 6.06918 9.22342 6.00801 8.25112L2.33501 4.57812C1.49022 5.58414 0.852357 6.74704 0.458008 8.00012C1.73201 12.0571 5.52301 15.0001 10 15.0001C10.847 15.0001 11.669 14.8951 12.454 14.6971Z" fill="#A7A9AE"/>
</g>
</svg>
