<svg width="16" height="17" viewBox="0 0 16 17" fill="none" xmlns="http://www.w3.org/2000/svg">
<g id="Group">
<path id="Vector" d="M8.00001 15.9286C12.1027 15.9286 15.4286 12.6027 15.4286 8.5C15.4286 4.39731 12.1027 1.07143 8.00001 1.07143C3.89733 1.07143 0.571442 4.39731 0.571442 8.5C0.571442 12.6027 3.89733 15.9286 8.00001 15.9286Z" fill="current" stroke="current" stroke-linecap="round" stroke-linejoin="round"/>
<path id="Vector 1509 (Stroke)" fill-rule="evenodd" clip-rule="evenodd" d="M11.6152 6.29962C11.8297 6.54347 11.8118 6.91351 11.575 7.13563L6.88597 11.532C6.70839 11.6985 6.42952 11.6898 6.26269 11.5125L3.73175 8.82304C3.50967 8.58705 3.51497 8.2174 3.74374 7.98788C3.9831 7.74774 4.3737 7.75335 4.60606 8.00027L6.50374 10.0168C6.56577 10.0827 6.66946 10.086 6.73549 10.0241L10.7521 6.25805C11 6.0257 11.3909 6.04453 11.6152 6.29962Z" fill="white"/>
</g>
</svg>
