<svg width="4" height="16" viewBox="0 0 4 16" fill="none" xmlns="http://www.w3.org/2000/svg">
<g id="Group">
<path id="Vector" d="M1.99944 3.99888C2.94622 3.99888 3.71373 3.23137 3.71373 2.2846C3.71373 1.33782 2.94622 0.570312 1.99944 0.570312C1.05267 0.570312 0.285156 1.33782 0.285156 2.2846C0.285156 3.23137 1.05267 3.99888 1.99944 3.99888Z" fill="black"/>
<path id="Vector_2" d="M1.99944 9.71373C2.94622 9.71373 3.71373 8.94622 3.71373 7.99944C3.71373 7.05267 2.94622 6.28516 1.99944 6.28516C1.05267 6.28516 0.285156 7.05267 0.285156 7.99944C0.285156 8.94622 1.05267 9.71373 1.99944 9.71373Z" fill="black"/>
<path id="Vector_3" d="M1.99944 15.4286C2.94622 15.4286 3.71373 14.6611 3.71373 13.7143C3.71373 12.7675 2.94622 12 1.99944 12C1.05267 12 0.285156 12.7675 0.285156 13.7143C0.285156 14.6611 1.05267 15.4286 1.99944 15.4286Z" fill="black"/>
</g>
</svg>
