<svg xmlns="http://www.w3.org/2000/svg" width="12" height="15" viewBox="0 0 12 15" fill="none">
<path d="M9.62988 6H1.62988C1.0776 6 0.629883 6.44772 0.629883 7V13C0.629883 13.5523 1.0776 14 1.62988 14H9.62988C10.1822 14 10.6299 13.5523 10.6299 13V7C10.6299 6.44772 10.1822 6 9.62988 6Z" fill="#A7A9AE" stroke="#A7A9AE" stroke-linecap="round" stroke-linejoin="round"/>
<path d="M9.12988 6V4.5C9.12988 3.57174 8.76113 2.6815 8.10476 2.02513C7.44838 1.36875 6.55814 1 5.62988 1C4.70163 1 3.81139 1.36875 3.15501 2.02513C2.49863 2.6815 2.12988 3.57174 2.12988 4.5V6" stroke="#A7A9AE" stroke-linecap="round" stroke-linejoin="round"/>
<path d="M5.62988 11C6.18217 11 6.62988 10.5523 6.62988 10C6.62988 9.44772 6.18217 9 5.62988 9C5.0776 9 4.62988 9.44772 4.62988 10C4.62988 10.5523 5.0776 11 5.62988 11Z" fill="white"/>
</svg>