<svg width="current" height="current" viewBox="0 0 28 28" fill="none" xmlns="http://www.w3.org/2000/svg">
<g id="Frame 636">
<g id="Group 1000003825">
<path id="Vector" d="M22.4256 2.57267C22.0713 2.21929 21.5809 2 21.0399 2C19.9848 2 19.1259 2.83139 19.0832 3.87261C17.8129 3.11694 16.3149 2.70203 14.7125 2.75409C10.549 2.88977 7.14643 6.25794 6.97559 10.407C6.78893 14.9757 10.4446 18.7367 14.983 18.7367C16.3734 18.7367 17.6816 18.3849 18.8206 17.7634C18.9376 17.7003 19.08 17.7807 19.08 17.9132C19.08 20.1613 17.3004 22.0544 15.0478 22.0907C14.2664 22.1033 13.5356 21.8967 12.9092 21.5291C12.2021 21.1142 11.3131 21.1678 10.6914 21.7026L10.6218 21.7626C9.61572 22.6302 9.76916 24.2205 10.9144 24.8957C12.1372 25.6151 13.5672 26.0205 15.0937 26C19.5008 25.9401 22.9999 22.2642 22.9999 17.8675V3.95622C22.9999 3.41511 22.78 2.92605 22.4256 2.57267ZM15.3247 14.8133C12.7968 15.0168 10.7009 12.928 10.9034 10.4054C11.0631 8.42556 12.6719 6.82429 14.6587 6.67127C17.1802 6.47722 19.2651 8.55807 19.0689 11.0696C18.9139 13.0479 17.3099 14.6523 15.3262 14.8133H15.3247Z" fill="#1990FF"/>
<path id="Vector_2" d="M7.39652 22.0028C8.72008 22.0028 9.79304 20.9327 9.79304 19.6127C9.79304 18.2927 8.72008 17.2227 7.39652 17.2227C6.07296 17.2227 5 18.2927 5 19.6127C5 20.9327 6.07296 22.0028 7.39652 22.0028Z" fill="#FFB950"/>
</g>
</g>
</svg>
