<svg width="current" height="current" viewBox="0 0 88 88" fill="none" xmlns="http://www.w3.org/2000/svg">
<g clip-path="url(#clip0_325_1194)">
<g opacity="0.5">
<path d="M88 27.5268C88 26.4756 88 25.4243 87.9947 24.3741C87.9893 23.4886 87.9786 22.6031 87.9551 21.7186C87.9027 19.7904 87.7893 17.8461 87.4471 15.9393C87.0995 14.0036 86.5316 12.2016 85.6354 10.4423C84.7563 8.71514 83.6067 7.13342 82.2367 5.76345C80.8657 4.39241 79.285 3.24381 77.5568 2.36365C75.7986 1.46852 73.9976 0.90064 72.063 0.553067C70.1562 0.209773 68.2098 0.0964106 66.2815 0.0440074C65.396 0.0204794 64.5116 0.00978481 63.6261 0.00443754C62.5748 -0.00197918 61.5235 -0.000909721 60.4733 -0.000909721H27.5277C26.4765 -0.000909721 25.4252 -0.000909726 24.375 0.00443754C23.4895 0.00978481 22.604 0.0204794 21.7195 0.0440074C19.7913 0.0964106 17.8449 0.209773 15.9381 0.553067C14.0034 0.90064 12.2025 1.46852 10.4443 2.36365C8.71605 3.24274 7.1354 4.39241 5.76436 5.76345C4.39332 7.13449 3.24472 8.71514 2.36456 10.4423C1.46943 12.2016 0.90155 14.0025 0.553977 15.9393C0.211752 17.8461 0.0973203 19.7904 0.0459865 21.7186C0.0224585 22.6041 0.011764 23.4886 0.00641674 24.3741C1.95217e-08 25.4254 0 26.4766 0 27.5268V60.4714C0 61.5226 1.95217e-08 62.5739 0.00641674 63.6241C0.011764 64.5096 0.0224585 65.3941 0.0459865 66.2796C0.0983898 68.2078 0.211752 70.1521 0.553977 72.0589C0.90155 73.9946 1.46943 75.7966 2.36456 77.5559C3.24365 79.2831 4.39332 80.8648 5.76436 82.2347C7.1354 83.6058 8.71605 84.7544 10.4443 85.6345C12.2025 86.5297 14.0034 87.0975 15.9381 87.4451C17.8449 87.7884 19.7902 87.9018 21.7195 87.9542C22.605 87.9777 23.4895 87.9884 24.375 87.9938C25.4263 88.0002 26.4775 87.9991 27.5277 87.9991H60.4723C61.5235 87.9991 62.5748 87.9991 63.625 87.9938C64.5105 87.9884 65.395 87.9777 66.2805 87.9542C68.2087 87.9018 70.154 87.7884 72.0619 87.4451C73.9966 87.0975 75.7975 86.5297 77.5557 85.6345C79.284 84.7554 80.8646 83.6058 82.2356 82.2347C83.6067 80.8637 84.7553 79.2831 85.6344 77.5559C86.5295 75.7966 87.0974 73.9957 87.446 72.0589C87.7882 70.1521 87.9027 68.2078 87.954 66.2796C87.9775 65.3941 87.9882 64.5096 87.9936 63.6241C88 62.5728 87.9989 61.5216 87.9989 60.4714V27.5268H88Z" stroke="white" stroke-miterlimit="10"/>
<path d="M27.5 -0.000976562V87.999" stroke="white" stroke-miterlimit="10"/>
<path d="M60.4092 -0.000976562V87.999" stroke="white" stroke-miterlimit="10"/>
<path d="M88 27.499H0" stroke="white" stroke-miterlimit="10"/>
<path d="M88 60.4072H0" stroke="white" stroke-miterlimit="10"/>
<path d="M88 43.999H0" stroke="white" stroke-miterlimit="10"/>
<path d="M43.9086 87.999V-0.000976562" stroke="white" stroke-miterlimit="10"/>
<path d="M82.226 87.999V-0.000976562" stroke="white" stroke-miterlimit="10"/>
<path d="M5.68311 87.999V-0.000976562" stroke="white" stroke-miterlimit="10"/>
<path d="M0 82.2236H88" stroke="white" stroke-miterlimit="10"/>
<path d="M0 5.68262H88" stroke="white" stroke-miterlimit="10"/>
<path d="M44.008 60.4881C53.1104 60.4881 60.4893 53.1091 60.4893 44.0067C60.4893 34.9043 53.1104 27.5254 44.008 27.5254C34.9056 27.5254 27.5266 34.9043 27.5266 44.0067C27.5266 53.1091 34.9056 60.4881 44.008 60.4881Z" stroke="white" stroke-miterlimit="10"/>
<path d="M0 -0.000976562L88 87.999" stroke="white" stroke-miterlimit="10"/>
<path d="M0 87.999L88 -0.000976562" stroke="white" stroke-miterlimit="10"/>
<path d="M67.241 45.9286C68.3027 33.097 58.7613 21.8342 45.9297 20.7725C33.0982 19.7108 21.8354 29.2522 20.7737 42.0838C19.712 54.9153 29.2534 66.1781 42.0849 67.2398C54.9165 68.3015 66.1793 58.7601 67.241 45.9286Z" stroke="white" stroke-miterlimit="10"/>
<path d="M44.008 82.2322C65.1193 82.2322 82.2334 65.1181 82.2334 44.0067C82.2334 22.8954 65.1193 5.78125 44.008 5.78125C22.8966 5.78125 5.78247 22.8954 5.78247 44.0067C5.78247 65.1181 22.8966 82.2322 44.008 82.2322Z" stroke="white" stroke-miterlimit="10"/>
</g>
<g clip-path="url(#clip1_325_1194)">
<path d="M58.3502 21.7487C57.66 21.0553 56.7047 20.625 55.6509 20.625C53.5957 20.625 51.9225 22.2564 51.8393 24.2995C49.365 22.8167 46.447 22.0026 43.3256 22.1047C35.2155 22.3709 28.5876 28.9801 28.2548 37.1216C27.8912 46.0865 35.0122 53.4665 43.8525 53.4665C46.561 53.4665 49.1093 52.7762 51.3278 51.5565C51.5558 51.4327 51.8332 51.5905 51.8332 51.8506C51.8332 56.2618 48.3667 59.9766 43.9788 60.0478C42.4567 60.0725 41.0331 59.667 39.8129 58.9457C38.4355 58.1316 36.7038 58.2368 35.4928 59.2863L35.3573 59.4039C33.3975 61.1065 33.6964 64.2269 35.9273 65.5518C38.3092 66.9634 41.0947 67.759 44.0682 67.7187C52.6528 67.6011 59.4687 60.3883 59.4687 51.7608V24.4636C59.4687 23.4018 59.0404 22.4421 58.3502 21.7487ZM44.5181 45.7677C39.5941 46.167 35.5113 42.0684 35.9057 37.1185C36.217 33.2335 39.3507 30.0914 43.2208 29.7911C48.1325 29.4104 52.1937 33.4935 51.8116 38.4217C51.5096 42.3037 48.3851 45.4519 44.5211 45.7677H44.5181Z" fill="#1990FF"/>
<path d="M29.0745 59.8778C31.6527 59.8778 33.7427 57.7781 33.7427 55.1879C33.7427 52.5978 31.6527 50.498 29.0745 50.498C26.4963 50.498 24.4062 52.5978 24.4062 55.1879C24.4062 57.7781 26.4963 59.8778 29.0745 59.8778Z" fill="#FFB950"/>
</g>
</g>
<defs>
<clipPath id="clip0_325_1194">
<rect width="88" height="88" fill="white"/>
</clipPath>
<clipPath id="clip1_325_1194">
<rect width="35.0625" height="47.0938" fill="white" transform="translate(24.4062 20.625)"/>
</clipPath>
</defs>
</svg>
