<svg xmlns="http://www.w3.org/2000/svg" width="56" height="41" viewBox="0 0 56 41" fill="none">
  <g clip-path="url(#clip0_3424_12700)">
    <path d="M55.5 1.91211H0.5V39.0928H55.5V1.91211Z" fill="#8EC7FF"/>
    <path d="M54.8058 37.6448L31.9855 18.851C29.6661 16.9429 26.3283 16.9429 24.0089 18.851L1.19492 37.6448C-0.175369 38.7707 0.619774 41.0004 2.39235 41.0004H53.6115C55.3809 41.0004 56.1761 38.7738 54.8089 37.6448H54.8058Z" fill="#5FB1FF"/>
    <path d="M54.8054 3.35569L31.9851 22.1495C29.6657 24.0575 26.328 24.0575 24.0086 22.1495L1.19456 3.35569C-0.175722 2.22662 0.619421 0 2.38885 0H53.608C55.3774 0 56.1726 2.22662 54.8054 3.35569Z" fill="#BADCFF"/>
    <path fill-rule="evenodd" clip-rule="evenodd" d="M20.5166 20.4363C20.5111 20.3296 20.5055 20.2285 20.5055 20.1218C20.5055 17.8475 22.321 16 24.5683 16C26.0129 16 27.286 16.7693 28.0055 17.9261C28.7251 16.7693 29.9926 16 31.4428 16C33.6845 16 35.5 17.8419 35.5 20.1218C35.5 20.9192 34.8842 22.3068 34.8911 22.2894C33.6236 25.479 30.7011 27.8151 28 29C24.928 27.6635 21.5517 25.1927 20.6439 21.2056C20.5941 21.0259 20.5609 20.8406 20.5332 20.6497C20.5221 20.5823 20.5111 20.5149 20.5 20.4419H20.5111L20.5166 20.4363Z" fill="white"/>
  </g>
  <defs>
    <clipPath id="clip0_3424_12700">
      <rect width="55" height="41" fill="white" transform="translate(0.5)"/>
    </clipPath>
  </defs>
</svg>