<svg xmlns="http://www.w3.org/2000/svg" width="28" height="29" viewBox="0 0 28 29" fill="none">
  <path d="M24.5172 16.6146C24.5172 22.4942 19.8087 26.9752 14.0003 26.9752C8.19192 26.9752 3.4834 22.4942 3.4834 16.6146C3.4834 10.735 8.19192 5.96875 14.0003 5.96875C19.8087 5.96875 24.5172 10.735 24.5172 16.6146Z" fill="#FFC30D"/>
  <path d="M14 28.5C6.14957 28.5 0 22.4258 0 14.6713C0 6.9168 6.28022 0.5 14 0.5C21.7198 0.5 28 6.85721 28 14.6713C28 22.4854 21.8504 28.5 14 28.5Z" fill="#FFD336"/>
  <path d="M14.0006 2.47266C7.34912 2.47266 1.9375 7.95031 1.9375 14.6833C1.9375 21.4163 7.23619 26.5279 14.0006 26.5279C20.765 26.5279 26.0636 21.3251 26.0636 14.6833C26.0636 8.04152 20.6523 2.47266 14.0006 2.47266Z" fill="#FFB800"/>
  <path d="M14 3.06641C7.51253 3.06641 2.23486 8.40877 2.23486 14.9758C2.23486 21.5427 7.40261 26.5279 14 26.5279C20.5974 26.5279 25.7651 21.4537 25.7651 14.9758C25.7651 8.49785 20.4875 3.06641 14 3.06641Z" fill="#FCCC22"/>
  <path fill-rule="evenodd" clip-rule="evenodd" d="M19.1876 4.27479L3.38913 20.285C2.55159 18.6856 2.08154 16.8489 2.08154 14.8683C2.08154 8.30135 7.35921 2.95898 13.8467 2.95898C15.7684 2.95898 17.584 3.43558 19.1876 4.27479Z" fill="#FFD952"/>
</svg>