<svg xmlns="http://www.w3.org/2000/svg" width="24" height="24" viewBox="0 0 24 24" fill="none">
<path fill-rule="evenodd" clip-rule="evenodd" d="M21.8736 11.2866C21.9584 11.4827 22.0014 11.6942 22 11.9077V20.4615C22 20.8696 21.8379 21.2609 21.5494 21.5494C21.2608 21.8379 20.8695 22 20.4615 22H14V16H10V22H3.53849C3.13047 22 2.73916 21.8379 2.45064 21.5494C2.16212 21.2609 2.00004 20.8696 2.00004 20.4615V11.9077C1.99859 11.6942 2.04162 11.4827 2.12637 11.2866C2.21113 11.0906 2.33576 10.9144 2.49234 10.7692L12 2L21.5077 10.7692C21.6642 10.9144 21.7889 11.0906 21.8736 11.2866Z" fill="black"/>
</svg>