<svg width="24" height="24" viewBox="0 0 24 24" fill="none" xmlns="http://www.w3.org/2000/svg">
<path fill-rule="evenodd" clip-rule="evenodd" d="M6.19877 7.65525C6.19877 4.53194 8.73071 2 11.854 2C14.9773 2 17.5093 4.53194 17.5093 7.65525C17.5093 10.7786 14.9773 13.3105 11.854 13.3105C8.73071 13.3105 6.19877 10.7786 6.19877 7.65525ZM5.78488 16.1474C7.54729 14.8618 9.67245 14.169 11.854 14.169C14.0355 14.169 16.1606 14.8618 17.923 16.1474C19.6854 17.433 20.9941 19.2451 21.6602 21.3224C21.7576 21.626 21.7041 21.9578 21.5162 22.2153C21.3283 22.4729 21.0287 22.6252 20.7099 22.6252H2.99799C2.67921 22.6252 2.3796 22.4729 2.19173 22.2153C2.00386 21.9578 1.95033 21.626 2.04768 21.3224C2.71384 19.2451 4.02246 17.433 5.78488 16.1474Z" fill="black"/>
</svg>
