<svg width="24" height="24" viewBox="0 0 24 24" fill="none" xmlns="http://www.w3.org/2000/svg">
<path d="M4.46154 6.16666C4.07391 6.16666 3.70217 6.31831 3.42807 6.58825C3.15398 6.85818 3 7.2243 3 7.60605V20.5606C3 20.9423 3.15398 21.3085 3.42807 21.5784C3.70217 21.8483 4.07391 22 4.46154 22H20.5385C20.9261 22 21.2978 21.8483 21.5719 21.5784C21.846 21.3085 22 20.9423 22 20.5606V7.60605C22 7.2243 21.846 6.85818 21.5719 6.58825C21.2978 6.31831 20.9261 6.16666 20.5385 6.16666H17.6154" stroke="black" stroke-width="1.5" stroke-linecap="round" stroke-linejoin="round"/>
<path d="M8.27777 3V9.33333" stroke="black" stroke-width="1.5" stroke-linecap="round" stroke-linejoin="round"/>
<path d="M16.7222 3V9.33333" stroke="black" stroke-width="1.5" stroke-linecap="round" stroke-linejoin="round"/>
<path d="M8.27777 6.16666H13.5555" stroke="black" stroke-width="1.5" stroke-linecap="round" stroke-linejoin="round"/>
<path d="M8 14.6008L11.1147 17L17 13" stroke="black" stroke-width="1.5" stroke-linecap="round" stroke-linejoin="round"/>
</svg>
