<svg width="28" height="28" viewBox="0 0 28 28" fill="none" xmlns="http://www.w3.org/2000/svg">
<g id="Group">
<path id="Vector (Stroke)" fill-rule="evenodd" clip-rule="evenodd" d="M1.05546 5.05546C1.57118 4.53973 2.27065 4.25 3 4.25C3.41421 4.25 3.75 4.58579 3.75 5C3.75 5.41421 3.41421 5.75 3 5.75C2.66848 5.75 2.35054 5.8817 2.11612 6.11612C1.8817 6.35054 1.75 6.66848 1.75 7V25C1.75 25.3315 1.8817 25.6495 2.11612 25.8839C2.35054 26.1183 2.66848 26.25 3 26.25H25C25.3315 26.25 25.6495 26.1183 25.8839 25.8839C26.1183 25.6495 26.25 25.3315 26.25 25V7C26.25 6.66848 26.1183 6.35054 25.8839 6.11612C25.6495 5.8817 25.3315 5.75 25 5.75H21C20.5858 5.75 20.25 5.41421 20.25 5C20.25 4.58579 20.5858 4.25 21 4.25H25C25.7293 4.25 26.4288 4.53973 26.9445 5.05546C27.4603 5.57118 27.75 6.27065 27.75 7V25C27.75 25.7293 27.4603 26.4288 26.9445 26.9445C26.4288 27.4603 25.7293 27.75 25 27.75H3C2.27065 27.75 1.57118 27.4603 1.05546 26.9445C0.539732 26.4288 0.25 25.7293 0.25 25V7C0.25 6.27065 0.539731 5.57118 1.05546 5.05546Z" fill="#A7A9AE"/>
<path id="Vector (Stroke)_2" fill-rule="evenodd" clip-rule="evenodd" d="M7 0.25C7.41421 0.25 7.75 0.585786 7.75 1V9C7.75 9.41421 7.41421 9.75 7 9.75C6.58579 9.75 6.25 9.41421 6.25 9V1C6.25 0.585786 6.58579 0.25 7 0.25Z" fill="#A7A9AE"/>
<path id="Vector (Stroke)_3" fill-rule="evenodd" clip-rule="evenodd" d="M21 0.25C21.4142 0.25 21.75 0.585786 21.75 1V9C21.75 9.41421 21.4142 9.75 21 9.75C20.5858 9.75 20.25 9.41421 20.25 9V1C20.25 0.585786 20.5858 0.25 21 0.25Z" fill="#A7A9AE"/>
<path id="Vector (Stroke)_4" fill-rule="evenodd" clip-rule="evenodd" d="M6.25 5C6.25 4.58579 6.58579 4.25 7 4.25H17C17.4142 4.25 17.75 4.58579 17.75 5C17.75 5.41421 17.4142 5.75 17 5.75H7C6.58579 5.75 6.25 5.41421 6.25 5Z" fill="#A7A9AE"/>
<path id="Vector (Stroke)_5" fill-rule="evenodd" clip-rule="evenodd" d="M9.92963 11.9306C10.2225 11.6377 10.6974 11.6377 10.9903 11.9306L18.0703 19.0106C18.3632 19.3035 18.3632 19.7784 18.0703 20.0713C17.7774 20.3642 17.3025 20.3642 17.0096 20.0713L9.92963 12.9913C9.63674 12.6984 9.63674 12.2235 9.92963 11.9306Z" fill="#A7A9AE"/>
<path id="Vector (Stroke)_6" fill-rule="evenodd" clip-rule="evenodd" d="M18.0703 11.9306C18.3632 12.2235 18.3632 12.6984 18.0703 12.9913L10.9903 20.0713C10.6974 20.3642 10.2225 20.3642 9.92963 20.0713C9.63674 19.7784 9.63674 19.3035 9.92963 19.0106L17.0096 11.9306C17.3025 11.6377 17.7774 11.6377 18.0703 11.9306Z" fill="#A7A9AE"/>
</g>
</svg>
