<svg xmlns="http://www.w3.org/2000/svg" width="24" height="24" viewBox="0 0 24 24" fill="none">
<path d="M8.57101 10.2851C10.7013 10.2851 12.4282 8.55819 12.4282 6.42794C12.4282 4.2977 10.7013 2.5708 8.57101 2.5708C6.44077 2.5708 4.71387 4.2977 4.71387 6.42794C4.71387 8.55819 6.44077 10.2851 8.57101 10.2851Z" stroke="#000001" stroke-width="1.5" stroke-linecap="round" stroke-linejoin="round"/>
<path d="M16.2855 23.1424H0.856934V21.4282C0.856934 19.3822 1.66969 17.42 3.1164 15.9733C4.5631 14.5266 6.52526 13.7139 8.57122 13.7139C10.6172 13.7139 12.5793 14.5266 14.026 15.9733C15.4728 17.42 16.2855 19.3822 16.2855 21.4282V23.1424Z" stroke="#000001" stroke-width="1.5" stroke-linecap="round" stroke-linejoin="round"/>
<path d="M15.4282 2.5708C16.4512 2.5708 17.4323 2.97718 18.1556 3.70053C18.879 4.42389 19.2854 5.40497 19.2854 6.42794C19.2854 7.45092 18.879 8.432 18.1556 9.15536C17.4323 9.87871 16.4512 10.2851 15.4282 10.2851" stroke="#000001" stroke-width="1.5" stroke-linecap="round" stroke-linejoin="round"/>
<path d="M18.1714 14.0386C19.6317 14.5941 20.8889 15.5799 21.7766 16.8656C22.6643 18.1513 23.1407 19.6762 23.1428 21.2386V23.1414H20.5714" stroke="#000001" stroke-width="1.5" stroke-linecap="round" stroke-linejoin="round"/>
</svg>