<svg xmlns="http://www.w3.org/2000/svg" width="22" height="22" viewBox="0 0 22 22" fill="none">
  <path d="M2.53846 21L19.4615 21C20.3112 21 21 20.3112 21 19.4615L21 2.53846C21 1.68879 20.3112 1 19.4615 1L2.53846 1C1.68879 1 1 1.68879 1 2.53846L1 19.4615C1 20.3112 1.68879 21 2.53846 21Z" stroke="#4C4E52" stroke-width="1.5" stroke-linecap="round" stroke-linejoin="round"/>
  <path d="M1 17.1523H21" stroke="#4C4E52" stroke-width="1.5" stroke-linecap="round" stroke-linejoin="round"/>
  <path d="M6.13867 17.1546L14.1541 9.64692C14.2923 9.53179 14.4665 9.46875 14.6464 9.46875C14.8263 9.46875 15.0004 9.53179 15.1387 9.64692L21.0002 13.8469" stroke="#4C4E52" stroke-width="1.5" stroke-linecap="round" stroke-linejoin="round"/>
  <path d="M7.15388 9.46304C8.42839 9.46304 9.46158 8.42985 9.46158 7.15535C9.46158 5.88085 8.42839 4.84766 7.15388 4.84766C5.87938 4.84766 4.84619 5.88085 4.84619 7.15535C4.84619 8.42985 5.87938 9.46304 7.15388 9.46304Z" stroke="#4C4E52" stroke-width="1.5" stroke-linecap="round" stroke-linejoin="round"/>
</svg>