<svg width="24" height="24" viewBox="0 0 24 24" fill="none" xmlns="http://www.w3.org/2000/svg">
<mask id="path-1-inside-1_146_854" fill="white">
<path fill-rule="evenodd" clip-rule="evenodd" d="M6.19877 7.65525C6.19877 4.53194 8.73071 2 11.854 2C14.9773 2 17.5093 4.53194 17.5093 7.65525C17.5093 10.7786 14.9773 13.3105 11.854 13.3105C8.73071 13.3105 6.19877 10.7786 6.19877 7.65525ZM5.78488 16.1474C7.54729 14.8618 9.67245 14.169 11.854 14.169C14.0355 14.169 16.1606 14.8618 17.923 16.1474C19.6854 17.433 20.9941 19.2451 21.6602 21.3224C21.7576 21.626 21.7041 21.9578 21.5162 22.2153C21.3283 22.4729 21.0287 22.6252 20.7099 22.6252H2.99799C2.67921 22.6252 2.3796 22.4729 2.19173 22.2153C2.00386 21.9578 1.95033 21.626 2.04768 21.3224C2.71384 19.2451 4.02246 17.433 5.78488 16.1474Z"/>
</mask>
<path d="M5.78488 16.1474L6.66888 17.3592L5.78488 16.1474ZM17.923 16.1474L17.039 17.3592L17.039 17.3592L17.923 16.1474ZM21.6602 21.3224L20.2319 21.7805L20.2319 21.7805L21.6602 21.3224ZM21.5162 22.2153L20.3043 21.3313L20.3043 21.3313L21.5162 22.2153ZM2.19173 22.2153L3.40357 21.3313L2.19173 22.2153ZM2.04768 21.3224L3.47603 21.7805H3.47603L2.04768 21.3224ZM11.854 0.5C7.90228 0.5 4.69877 3.70351 4.69877 7.65525H7.69877C7.69877 5.36037 9.55914 3.5 11.854 3.5V0.5ZM19.0093 7.65525C19.0093 3.70351 15.8057 0.5 11.854 0.5V3.5C14.1489 3.5 16.0093 5.36037 16.0093 7.65525H19.0093ZM11.854 14.8105C15.8057 14.8105 19.0093 11.607 19.0093 7.65525H16.0093C16.0093 9.95012 14.1489 11.8105 11.854 11.8105V14.8105ZM4.69877 7.65525C4.69877 11.607 7.90228 14.8105 11.854 14.8105V11.8105C9.55914 11.8105 7.69877 9.95013 7.69877 7.65525H4.69877ZM11.854 12.669C9.35469 12.669 6.92 13.4627 4.90088 14.9356L6.66888 17.3592C8.17459 16.2609 9.9902 15.669 11.854 15.669V12.669ZM18.807 14.9356C16.7879 13.4627 14.3532 12.669 11.854 12.669V15.669C13.7177 15.669 15.5333 16.2609 17.039 17.3592L18.807 14.9356ZM23.0886 20.8644C22.3254 18.4845 20.8262 16.4085 18.807 14.9356L17.039 17.3592C18.5447 18.4576 19.6628 20.0058 20.2319 21.7805L23.0886 20.8644ZM22.728 23.0993C23.1983 22.4547 23.3322 21.6242 23.0886 20.8644L20.2319 21.7805C20.1829 21.6278 20.2098 21.4609 20.3043 21.3313L22.728 23.0993ZM20.7099 24.1252C21.5078 24.1252 22.2578 23.744 22.728 23.0993L20.3043 21.3313C20.3989 21.2018 20.5496 21.1252 20.7099 21.1252V24.1252ZM2.99799 24.1252H20.7099V21.1252H2.99799V24.1252ZM0.979898 23.0993C1.45015 23.744 2.20007 24.1252 2.99799 24.1252V21.1252C3.15834 21.1252 3.30906 21.2018 3.40357 21.3313L0.979898 23.0993ZM0.619326 20.8644C0.375663 21.6242 0.509651 22.4547 0.979898 23.0993L3.40357 21.3313C3.49807 21.4609 3.525 21.6278 3.47603 21.7805L0.619326 20.8644ZM4.90088 14.9356C2.88175 16.4085 1.38252 18.4845 0.619326 20.8644L3.47603 21.7805C4.04516 20.0058 5.16317 18.4576 6.66888 17.3592L4.90088 14.9356Z" fill="black" mask="url(#path-1-inside-1_146_854)"/>
</svg>
