 <svg width="22" height="16" viewBox="0 0 22 16" fill="none" xmlns="http://www.w3.org/2000/svg">
<g id="Icons" clip-path="url(#clip0_718_1092)">
<g id="Mail Icon">
<path id="Vector" d="M22 0.746094H0V15.2556H22V0.746094Z" fill="#8EC7FF"/>
<path id="Vector_2" d="M21.7224 14.6905L12.5943 7.35631C11.6665 6.6117 10.3314 6.6117 9.40366 7.35631L0.278064 14.6905C-0.27005 15.1299 0.0480074 16 0.757036 16H21.2447C21.9525 16 22.2705 15.1311 21.7237 14.6905H21.7224Z" fill="#5FB1FF"/>
<path id="Vector_3" d="M21.722 1.30954L12.5939 8.64369C11.6661 9.38831 10.331 9.38831 9.40323 8.64369L0.27763 1.30954C-0.270484 0.868923 0.047573 0 0.755344 0H21.243C21.9508 0 22.2688 0.868923 21.722 1.30954Z" fill="#BADCFF"/>
</g>
</g>
<defs>
<clipPath id="clip0_718_1092">
<rect width="22" height="16" fill="white"/>
</clipPath>
</defs>
</svg>
