<svg xmlns="http://www.w3.org/2000/svg" width="20" height="24" viewBox="0 0 20 24" fill="none">
  <path d="M15.9999 9.25586H17.7142C17.9415 9.25586 18.1595 9.33768 18.3203 9.48331C18.481 9.62894 18.5713 9.82646 18.5713 10.0324V21.6808C18.5713 21.8867 18.481 22.0843 18.3203 22.2299C18.1595 22.3755 17.9415 22.4573 17.7142 22.4573H2.28561C2.05828 22.4573 1.84026 22.3755 1.67952 22.2299C1.51877 22.0843 1.42847 21.8867 1.42847 21.6808V10.0324C1.42847 9.82646 1.51877 9.62894 1.67952 9.48331C1.84026 9.33768 2.05828 9.25586 2.28561 9.25586H3.9999" stroke="#000001" stroke-width="1.5" stroke-linecap="round" stroke-linejoin="round"/>
  <path d="M10 13.542V1.54199" stroke="#000001" stroke-width="1.5" stroke-linecap="round" stroke-linejoin="round"/>
  <path d="M6.57129 4.97056L9.99986 1.54199L13.4284 4.97056" stroke="#000001" stroke-width="1.5" stroke-linecap="round" stroke-linejoin="round"/>
</svg>